<svg xmlns="http://www.w3.org/2000/svg" viewBox="0 0 346 93.5"><style>.a{fill:#ffde0c}.c{fill:#e53629}.d{fill:#242016}</style><path d="M114 2.5c-11.1 0-18.2 7.9-18.2 17.9 0 10.1 6.1 17.3 17.4 17.3 3.4 0 6.9-.6 10.6-2.6-.9-1.4-1.4-3.1-1.4-5.1-2.4 1.4-5.1 2.4-8.4 2.4-7 0-11.4-5-11.4-12.2 0-6.7 4-12.5 11.6-12.5 3.3 0 6.2.8 8.9 2.2V4.2c-2.2-1-5.3-1.7-9.1-1.7m87.7 29.8c-.9 0-1.9-.1-2.9-.4V17.6c.8-.3 1.9-.8 3.8-.8 4.1 0 6.5 3 6.5 7.4-.1 4.8-3 8.1-7.4 8.1M198.8 0h-6.2v35.7c2.1 1.1 4.9 1.7 8.1 1.7 8.4 0 14.8-5 14.8-13.7 0-7.8-5.3-12.2-11.8-12.2-1.9 0-3.4.3-4.8.7V0zm63.6 32.6c-4.5 0-7.6-2.8-7.6-7.6 0-5.1 3.2-8 7.5-8 1.3 0 2 .2 3 .4v14.8c-.8.3-2 .4-2.9.4M271.6.3h-6.3v12c-1-.2-2.4-.3-3.3-.3-7.8 0-13.5 5.4-13.5 13.2 0 8.1 6 12.6 14 12.6 3 0 6.6-.6 9.1-1.8V.3zm34 21.9c.1-3 1.7-5.6 4.8-5.6 3.3 0 4.7 2.8 4.7 5.6h-9.5m4.9-10.3c-7 0-11.1 5.6-11.1 13 0 6.7 3.7 12.8 12.6 12.8 3 0 6.1-.7 8.7-2.3l-1.9-4.3c-1.8 1-3.8 1.7-6.2 1.7-4.1 0-6.8-2.5-7-6.3h15.8V25c.1-8.1-3.9-13.1-10.9-13.1m-203 61.7l2.5-6.8c.9-2.7 1.5-4.2 1.8-5.4h.1c.3 1.1.8 2.7 1.7 5.3l2.4 6.8h-8.5m6.8-20.7h-5L96 87.3h6.5l3.2-8.6H118l3.3 8.6h6.8l-13.8-34.5zm61.3 19.5c.1-3 1.7-5.6 4.8-5.6 3.3 0 4.7 2.8 4.7 5.6h-9.5m4.9-10.3c-7 0-11.1 5.6-11.1 13 0 6.7 3.7 12.8 12.6 12.8 3 0 6.1-.7 8.7-2.3l-1.9-4.3c-1.8 1-3.8 1.7-6.2 1.7-4.1 0-6.8-2.4-7-6.3h15.8v-1.5c.1-8.1-4-13.1-10.9-13.1m102.8 10.3c.1-3 1.7-5.6 4.8-5.6 3.3 0 4.7 2.8 4.7 5.6h-9.5m4.9-10.3c-7 0-11.1 5.6-11.1 13 0 6.7 3.7 12.8 12.6 12.8 3 0 6.1-.7 8.7-2.3l-1.9-4.3c-1.8 1-3.8 1.7-6.2 1.7-4.1 0-6.8-2.4-7-6.3h15.8v-1.5c.1-8.1-3.9-13.1-10.9-13.1M134.8 32.8c-2.2 0-3.7-1.3-3.7-3.4 0-1.3.5-2.2 1.5-2.8.8-.5 2-.7 3.6-.8l3.2-.1v5.4c-.8.7-2.5 1.7-4.6 1.7m1.1-20.9c-3.4 0-6.6.8-9.5 2.5l2 4c1.8-.9 4-1.7 6.5-1.7 2.9 0 4.8 1.3 4.8 4.1v.8l-4.2.2c-2.5.1-4.6.5-6.4 1.4-2.6 1.3-4.2 3.4-4.2 6.7 0 4.8 3.5 7.9 8.2 7.9 3.1 0 5.3-1.3 7.1-2.9h.5c.6.7 1.3 1.1 1.7 1.3l3.3 1.6.1.1.1-.1V20.9c-.1-6-3.4-9-10-9M338 55.1l-6.2 1.8v5.7h-4.4v4.9h4.4v13.7c0 4.1 2.7 6.6 7 6.6 2.5 0 5.4-.7 7.2-1.9l-1.9-4.3c-.9.6-2.3 1.2-3.8 1.2-1.6 0-2.4-.8-2.4-3.1V67.5h2.3c2.8 0 3.6-1.5 4-2.2l1.2-2.4v-.2h-7.5v-7.6M158.3 62c-5.8 0-9.3 3.1-9.3 7.5 0 8.2 11.6 6.7 11.6 10.9 0 1.9-1.8 2.6-4.3 2.6s-4.9-.8-6.7-2l-.3.7-1.1 4.2c2 1.1 5 2.1 8.5 2.1 5.3 0 10-2.2 10-7.7 0-8.6-11.6-7.1-11.6-11 0-1.6 1.4-2.2 3.5-2.2s4.1.5 5.8 1.1l1.2-4.4v-.4c-2-.9-4.5-1.4-7.3-1.4m45.5 0c-5.8 0-9.3 3.1-9.3 7.5 0 8.2 11.6 6.7 11.6 10.9 0 1.9-1.8 2.6-4.3 2.6-2.4 0-4.6-.8-6.5-1.9L194 86c2 1 4.8 1.9 8.2 1.9 5.3 0 10-2.2 10-7.7 0-8.6-11.6-7.1-11.6-11 0-1.6 1.4-2.2 3.5-2.2s4 .5 5.8 1.1l1.2-4.6v-.2c-2.1-.8-4.6-1.3-7.3-1.3m20.6 0c-5.8 0-9.3 3.1-9.3 7.5 0 8.2 11.6 6.7 11.6 10.9 0 1.9-1.8 2.6-4.3 2.6-2.4 0-4.7-.8-6.6-1.9l-1.3 4.9c2 1.1 4.9 1.9 8.3 1.9 5.3 0 10-2.2 10-7.7 0-8.6-11.6-7.1-11.6-11 0-1.6 1.4-2.2 3.5-2.2s4 .5 5.8 1.1l1.2-4.7v-.1c-2.1-.8-4.5-1.3-7.3-1.3m-86.6 0c-5.8 0-9.3 3.1-9.3 7.5 0 8.2 11.6 6.7 11.6 10.9 0 1.9-1.8 2.6-4.3 2.6s-4.9-.8-6.7-2l2.4 6.3c1.4.4 3 .6 4.8.6 5.3 0 10-2.2 10-7.7 0-8.6-11.6-7.1-11.6-11 0-1.6 1.4-2.2 3.5-2.2s4 .5 5.8 1.1l1.2-4.6v-.2c-2.1-.8-4.6-1.3-7.4-1.3m98.3-.4l-.1.1v25.7h6.2V69.9c1.8-1.5 3.9-2.5 5.9-2.5 3.2 0 3.7 2.4 3.7 5.3v14.6h6.3V70.8l-.1-.9c1.8-1.5 3.9-2.5 5.8-2.5 3.2 0 3.8 2.3 3.8 5.2v14.7h6.2V70.9c0-6.5-3.9-8.9-8.2-8.9-2.8 0-5.9 1.3-8.9 3.8-1.2-2.5-3.5-3.8-6.6-3.8s-5.8 1.5-8.3 3.4h-.2c-.6-1.3-1.6-1.9-2.2-2.2l-3.2-1.6h-.1m66.7 0l-.1.1v25.7h6.2V70c1.8-1.5 4-2.6 6.1-2.6 3.2 0 3.8 2.5 3.8 5.5v14.4h6.3V71c0-7-4-9-7.9-9-3.1 0-5.8 1.4-8.5 3.4h-.3c-.6-1.3-1.6-1.9-2.2-2.2l-3.2-1.6h-.2M150.5 11.4l-.1.1v25.6h6.2V19.7c1.8-1.5 3.9-2.5 5.9-2.5 3.2 0 3.7 2.4 3.7 5.3v14.6h6.3V20.6l-.1-.9c1.8-1.5 3.9-2.5 5.8-2.5 3.2 0 3.8 2.3 3.8 5.2v14.7h6.2V20.7c0-6.5-3.9-8.9-8.2-8.9-2.8 0-5.9 1.3-8.9 3.8-1.2-2.5-3.5-3.8-6.6-3.8-3 0-5.8 1.5-8.3 3.4h-.2c-.6-1.3-1.6-1.9-2.2-2.2l-3.2-1.6h-.1m81.3.6c-2.8 0-5.3 1.5-6.8 3.3l-.7-2.8H219v24.7h6.2V19.8c1.9-2.3 3.8-3 5.4-3 2.2 0 3.8 1.4 3.8 1.4v-5.7c-.8-.3-1.7-.5-2.6-.5m12.7.5h-6.3v24.7h6.3V12.5zM241.3 1c-2.2 0-3.8 1.7-3.8 3.8s1.6 3.7 3.8 3.7 3.9-1.7 3.9-3.7c0-2.1-1.7-3.8-3.9-3.8m45 43.3c-4.1 0-6.7-1.5-6.7-4 0-1.6 1.2-2.7 2-3.2 3.3 1.3 11 .6 11 4.1 0 1.8-2.5 3.1-6.3 3.1m-.4-19.5c-2.8 0-4.3-2.1-4.3-4.6 0-3 1.8-4.6 4.3-4.6 2.8 0 4.4 2.2 4.4 4.6 0 3.1-1.9 4.6-4.4 4.6m13.3-13.9h-13.5c-6.7 0-10.1 4.5-10.1 9.1 0 3.3 1.5 6.2 4.1 7.7-2 1.4-3 3.2-3 4.6 0 1.3.6 2.5 1.6 3.1-2.6 1.1-4.4 3.2-4.4 6 0 4.3 4.2 7.3 11.5 7.3 8.6 0 13-3.7 13-8.1 0-9.2-16.2-5.1-16.2-9.5 0-.5.2-1 .6-1.8.8.3 1.9.4 3 .4 6 0 10.2-3.6 10.2-9.1 0-1.9-.6-3.8-1.7-5.2h.7c2-.2 2.7-1.3 3-1.9l1.1-2.1v-.1l.1-.4z"/><path d="M76.7 51.1c-.2 4.2-.8 8-1.8 11.3-1 3.2-2.5 6.1-4.3 8.5-3.4 4.5-7.6 6.8-10.4 8.3-.2.1-1.9 1-9.8 4.9l.1.2h.2v-33H77v-.4H50.3v33.8l.3-.1c7.9-4 9.6-4.8 9.8-4.9 2.8-1.5 7-3.8 10.5-8.4 1.9-2.5 3.3-5.4 4.4-8.6 1.1-3.4 1.7-7.2 1.8-11.4l-.4-.2m-46.7 0v33.3h.2l.1-.2c-7.9-4-9.6-4.8-9.8-4.9-2.8-1.5-7-3.8-10.4-8.3-1.8-2.4-3.3-5.3-4.3-8.5-1-3.3-1.7-7.1-1.8-11.3h-.2v.2h26.5V51H3.5v.2c.2 4.2.8 8.1 1.8 11.4 1 3.3 2.5 6.2 4.4 8.6 3.5 4.6 7.7 6.9 10.5 8.4.3.1 1.9 1 9.8 4.9l.3.1V51.1H30" class="a"/><path d="M77 3.7v-.2H50.3V31h26.9V3.5H77v.2h-.2v26.9H50.7V3.9H77v-.2h-.2.2m-46.8 0v-.2H3.5V31h26.9V3.5h-.2v.2H30v26.9H3.9V3.9h26.3v-.2H30h.2" fill="#171816"/><path d="M40.3 93.5l-.8-.4c-1.2-.6-19.8-9.9-20.9-10.5-6-3.2-18.6-10-18.6-34V0h80.7v48.6c0 23.9-12.6 30.7-18.6 34-1.1.6-19.9 9.9-20.9 10.5l-.9.4"/><path d="M48.5 32.7v-31H32.1v31H1.7v16.4h30.4v38.3l8.2 4.1 8.2-4.1V49.2h30.4V32.8H48.5" fill="#FFF"/><path class="c" d="M1.7 1.7h30.4v31H1.7zm46.8 0h30.4v31H48.5zM32.1 49.2H1.7c.2 22.2 11.6 28.7 17.7 32 .6.3 7.1 3.6 12.7 6.4V49.2m16.4 0v38.3c5.6-2.8 12.1-6 12.7-6.4 6.1-3.3 17.5-9.8 17.7-32H48.5"/><path d="M59 41.2l.6-.7-.8-1-.8.9.6.7c0 .4 0 3.7-1.9 4.8 0 0 .6.1 1.5 0 0 0 .2.9.6 1.8.4-1 .6-1.8.6-1.8.9.2 1.5 0 1.5 0-2-1.1-1.9-4.3-1.9-4.7m4.9-5.6l.6-.7-.8-.9-.8.9.6.7c0 .4 0 3.7-1.9 4.8 0 0 .6.1 1.5 0 0 0 .2.9.6 1.8.4-1 .6-1.8.6-1.8.9.2 1.5 0 1.5 0-1.9-1.1-1.9-4.4-1.9-4.8m5 5.6l.6-.7-.8-1-.8.9.6.7c0 .4 0 3.7-1.9 4.8 0 0 .6.1 1.5 0 0 0 .2.9.6 1.8.4-1 .6-1.8.6-1.8.9.2 1.5 0 1.5 0-2-1.1-1.9-4.3-1.9-4.7m4.9-5.6l.6-.7-.8-.9-.8.9.6.7c0 .4 0 3.7-1.9 4.8 0 0 .6.1 1.5 0 0 0 .2.9.6 1.8.4-1 .6-1.8.6-1.8.9.2 1.5 0 1.5 0-1.9-1.1-1.9-4.4-1.9-4.8m-19.8 0l.6-.7-.8-.9-.8.9.6.7c0 .4 0 3.7-1.9 4.8 0 0 .6.1 1.5 0 0 0 .2.9.6 1.8.4-1 .6-1.8.6-1.8.9.2 1.5 0 1.5 0C54 39.3 54 36 54 35.6m-41.9 5.6l.6-.7-.7-1-.8.9.6.7c0 .4 0 3.7-1.9 4.8 0 0 .6.1 1.5 0 0 0 .2.9.6 1.8.4-1 .6-1.8.6-1.8.9.2 1.5 0 1.5 0-2-1.1-2-4.3-2-4.7m5-5.6l.6-.7-.8-.9-.8.9.6.7c0 .4 0 3.7-1.9 4.8 0 0 .7.1 1.5 0 0 0 .2.9.6 1.8.4-1 .6-1.8.6-1.8.9.2 1.5 0 1.5 0-2-1.1-1.9-4.4-1.9-4.8m4.9 5.6l.6-.7-.7-1-.8.9.6.7c0 .4 0 3.7-1.9 4.8 0 0 .6.1 1.5 0 0 0 .2.9.6 1.8.4-1 .6-1.8.6-1.8.9.2 1.5 0 1.5 0-2-1.1-2-4.3-2-4.7m5-5.6l.6-.7-.8-1-.8.9.6.7c0 .4 0 3.7-1.9 4.8 0 0 .6.1 1.5 0 0 0 .2.9.6 1.8.4-1 .6-1.8.6-1.8.9.2 1.5 0 1.5 0-2-1-1.9-4.3-1.9-4.7m-19.8 0l.6-.7L7 34l-.8.9.6.7c0 .4 0 3.7-1.9 4.8 0 0 .6.1 1.5 0 0 0 .2.9.6 1.8.4-1 .6-1.8.6-1.8.9.2 1.5 0 1.5 0-2-1.1-1.9-4.4-1.9-4.8m33.3 18.2l.6-.7-.8-.9-.8.9.6.7c0 .4 0 3.7-1.9 4.8 0 0 .6.1 1.5 0 0 0 .2.9.6 1.8.4-1 .6-1.8.6-1.8.9.2 1.5 0 1.5 0-1.9-1.2-1.9-4.4-1.9-4.8m0 16.8l.6-.7-.8-.9-.8.9.6.7c0 .4 0 3.7-1.9 4.8 0 0 .6.1 1.5 0 0 0 .2.9.6 1.8.4-1 .6-1.8.6-1.8.9.2 1.5 0 1.5 0-1.9-1.2-1.9-4.4-1.9-4.8m4.6-8.4l.6-.7-.8-.9-.8.9.6.7c0 .4 0 3.7-1.9 4.8 0 0 .6.1 1.5 0 0 0 .2.9.6 1.8.4-1 .6-1.8.6-1.8.9.2 1.5 0 1.5 0-1.9-1.2-1.9-4.4-1.9-4.8m-9.2 0l.6-.7-.8-.9-.8.9.6.7c0 .4 0 3.7-1.9 4.8 0 0 .6.1 1.5 0 0 0 .2.9.6 1.8.4-1 .6-1.8.6-1.8.9.2 1.5 0 1.5 0-1.9-1.2-1.9-4.4-1.9-4.8M45.1 79l.6-.7-.8-.9-.8.9.6.7c0 .4 0 3.7-1.9 4.8 0 0 .6.1 1.5 0 0 0 .2.9.6 1.8.4-1 .6-1.8.6-1.8.9.2 1.5 0 1.5 0-1.9-1.2-1.9-4.5-1.9-4.8m-9.2 0l.6-.7-.8-.9-.8.9.6.7c0 .4 0 3.7-1.9 4.8 0 0 .6.1 1.5 0 0 0 .2.9.6 1.8.4-1 .6-1.8.6-1.8.9.2 1.5 0 1.5 0-1.9-1.2-1.9-4.5-1.9-4.8m4.6-63.5l.6-.7-.8-.9-.8.9.6.7c0 .4 0 3.7-1.9 4.8 0 0 .6.1 1.5 0 0 0 .2.9.6 1.8.4-1 .6-1.8.6-1.8.9.2 1.5 0 1.5 0-1.9-1.1-1.9-4.4-1.9-4.8m4.6-8.4l.6-.7-.8-.9-.8.9.6.7c0 .4 0 3.7-1.9 4.8 0 0 .6.1 1.5 0 0 0 .2.9.6 1.8.4-1 .6-1.8.6-1.8.9.2 1.5 0 1.5 0-1.9-1.1-1.9-4.4-1.9-4.8m-9.2 0l.6-.7-.8-.9-.8.9.6.7c0 .4 0 3.7-1.9 4.8 0 0 .6.1 1.5 0 0 0 .2.9.6 1.8.4-1 .6-1.8.6-1.8.9.2 1.5 0 1.5 0-1.9-1.1-1.9-4.4-1.9-4.8m9.2 16.8l.6-.7-.8-.9-.8.9.6.7c0 .4 0 3.7-1.9 4.8 0 0 .6.1 1.5 0 0 0 .2.9.6 1.8.4-1 .6-1.8.6-1.8.9.2 1.5 0 1.5 0-1.9-1.1-1.9-4.4-1.9-4.8m-9.2 0l.6-.7-.8-.9-.8.9.6.7c0 .4 0 3.7-1.9 4.8 0 0 .6.1 1.5 0 0 0 .2.9.6 1.8.4-1 .6-1.8.6-1.8.9.2 1.5 0 1.5 0-1.9-1.1-1.9-4.4-1.9-4.8M25.6 17l.1.4.2.8c.3 1.5.6 1.9 1.3 1.9.4 0 .7-.2.9-.6l.2-.5.2-.2c.3 0 .4.3.4.9 0 .2.1.6.2 1.3.1.4.1.8.1 1.1l-.2.8c.1.5.2 1.2.2 1.6 0 .6-.1 1.2-.3 1.5.1.4.1.6.1 1l-.1.9c-.1.6-.1.8-.1.9l.1.3.1.3-.1.1-.5-.2-.6-.3-.6-.5c-.5.4-.7.5-2 .9l-.6.2-.3.2c-.2 0-.3-.4-.3-1.1 0-.5.1-1.1.2-1.4-.4-.1-.7-.2-.9-.2l-.4.1h-.1l-.1-.2.2-.6.3-.6.6-.7.7-.4.9-.2c.6-.1.9-.4.9-.8s-.2-.6-.8-.8l-1.1-.4-1-.5c-.6-.4-.7-.4-.9-.4l-.3.5c0 .5.3.8.7.8l.3-.1.3-.1.2.2v.5c0 .4-.3.8-.8 1.5l-.2.3c-.2.8-.7 1.6-1.4 2l-.3.2c-.5 1.2-1.8 1.6-2.1 2.5l-.2.1c-.2 0-.4-.2-.6-.6l-.4-.4-.5.1-.4.1h-.9c-.5 0-1.1.1-1.4.3l-.3.1-.2-.2-.1-.2c0-.5.3-1.4.8-2.1.3-.4.4-.5.7-.8-.1-.4-.4-.8-.7-.9l-.4-.1-.1-.1c0-.1.2-.3.6-.5.5-.3 1-.4 1.4-.4.4 0 .8.2 1.3.5.7.5.9.6 1.2.6.5 0 1.1-.5 1.1-1 0-.3-.2-.7-.7-1.4-.7-.9-.9-1.4-.9-2.1 0-.4.1-1 .3-1.2l.3-.4.1-.2-.5-.3c-.4 0-1.2.3-1.8.7l-.5.6.1.2.3.2.1.1-.1.2-.5.7c-.3.3-.7.8-1.1 1.1l-.3.3-.2.4c-.2.3-.7.8-1.1 1.2l-.4.3-.2.4-.3.5-.6.8-.7.7c-.2.2-.4.7-.7 1.6-.2.6-.3.9-.4.9l-.8-.3c-.5-.6-.9-.9-1.2-.9l-.3.1-.7.3-.9.1c-.7.1-1 .3-1.4.8l-.2.2-.1-.3v-.2l.1-.7c.1-.7.3-1.3.5-1.7l.4-.8.1-.4c0-.6-.6-1.1-1.4-1.2l-.3-.2.5-.6c.5-.4 1.2-.7 1.6-.7.3 0 .7.1 1.2.3l.6.2.6.1c.6 0 1.2-.5 1.9-1.8.3-.6.5-1 .5-1.3 0-.7-.3-1-.8-1-.4 0-.8.2-1.1.5l-.4.8v.4l-.2.4c-.2 0-.6-.3-1.6-1.6-.8-.9-.9-1.3-1-2.2-.9-1.1-1.1-1.6-1.1-2.4v-.5c-.6-.7-.8-1.1-.8-1.8l.2-.7c-.3-.5-.4-.7-.5-1l-.1-.5-.3-1-.3-.5c0-.3.2-.4 1.1-.6v-.6l.1-.6.2-1c.1-.4.1-.7.1-.8 0-.2 0-.3-.2-.8l-.3-.6-.2-.4.2-.1c.3 0 .9.4 1.6 1 1.5 1.2 1.8 1.7 2 3.2l.1.5c.7.5 1.1 1.2 1.1 1.8 0 .5-.2 1.2-.5 1.6l-.5.8-.2.9c0 .5.1.9.5 1.5.4.7.7 1 1.1 1 .7 0 1.3-1.2 1.3-2.5v-.7l.1-.8c0-.4.1-.6.1-.7v-1l-.3-.5-.6-.7c-.8-.9-1.3-1.7-1.3-2.4 0-.8.6-1.4 1.3-1.4l.5.1v-.1c0-1.1.2-2 .5-2h.1l.5.4.6.4.2.2.3-.7.4-.5.3-.4.1-.2.2-.2.2.4c.1.2.1.2.5.6l.3.3.3.5.1.2.5-.5.4-.2.3-.1.1.2.2.4c.3.5.4.7.4.9V6c.8.3 1.2.7 1.2 1.6 0 .7-.3 1.4-1 2.2-.4.5-.5.6-.5 1 0 1.9 1.3 3 3.7 3h1.7c1.1 0 1.8.1 2.8.5 1.2.4 1.6.5 1.9.5l.3-.1.2-.2c0-.4-.6-.7-2.7-1.2-4.2-1.2-6-2.9-6-5.7 0-2.2 1.8-3.9 4.1-3.9.8 0 1.9.2 2.6.4l1.1.4.6.1c.4 0 .5-.3.6-.9l.3-.4c.3 0 .8.4 1.2 1 .4.6.7 1.3.7 1.7 0 .6-.3 1-.9 1.4-.6.9-1.3 1.3-2.2 1.3-.7 0-1.8-.4-3.5-1.4-.6-.3-.9-.5-1.2-.5-.5 0-.7.3-.7.7 0 .4.3.6 1 .9 1.1.4 1.4.5 1.8 1 1.3.2 1.9.5 2.7 1.1 2.3.7 3.7 2.3 3.7 4 0 1.7-1.2 3-2.8 3-.8-.3-1-.3-1.6-.5"/><path d="M28.1 28.3l-.1-.6c.3-1.4.1-1.5-.6-2.6l-.1-.2.2-.2.3.2.3.1c.2 0 .2-.2.2-.7 0-.5 0-.8-.2-.9l-.4-.4-.3-.3-.1-.2.2-.2.6.1h.1l.1-.2v-.1l-.1-.5-.2-.6-.2-.2h-.1l-.6.1H27c-.8 0-1.7-.7-2-1.6l-.5-1.7c-.2-.5-.5-1-1.2-1.6l-.5-.3-.5-.1-.1-.1.3-.2.8.1c.3 0 .8.2 1.4.4.8.3 1.3.4 1.7.4 1.3 0 2.1-.7 2.1-1.9 0-.8-.4-1.7-1.1-2.3l-.9-.6-.1.1v.3l-.2.2-.4-.5c-.5-1-1.3-1.6-2.1-1.6l-.2.1.1.4.2.5.1.2-.1.1-.4-.2-.4-.4-.3-.5c-.3-.4-.5-.6-1.1-.9l-.6-.3-.3-.1-.1.1.1.3.3.5-.1.2c-.2 0-.6-.4-1-.9-.3-.5-.5-1-.5-1.4 0-1.1.8-1.9 1.9-1.9.6 0 1.3.2 1.9.6l1.2.7c.4.3 1 .5 1.4.5l.8-.1.3-.1.1-.1-.1-.1-.2-.1-.6-.1-.7-.3c-.7-.3-1.1-.5-1.3-.6-.4-.3-.7-.4-.8-.5l-.3-.2.1-.1.3.1 1 .4 1.1.4c.5.2 1.4.4 1.7.4.5 0 .8-.4.8-.9l-.4-1.1-.2-.1v.5l-.5.6-.4-.1-1.7-.5c-1.4-.5-2.1-.6-2.8-.6-2 0-3.5 1.4-3.5 3.2 0 2 1.4 3.4 5 4.6 3.5 1.2 4 1.5 4 2.4 0 .5-.5 1-1.1 1l-.6-.1c-.1 0-.7-.2-1.8-.4-1.1-.3-2-.4-3.2-.4-2.5 0-3.9.4-5.1 1.6l-.7.3h-.6l-.7.5c-.3.4-.4.7-.4.7l-.3.2c-.2 0-.4-.2-.6-.8l-.5-.8-.5-.5-.1-.2.1-.2.4-.7.2-.4c.2 0 .2.2.2.7l.2.7.3.6.2.1c.3 0 .6-.6.7-1.3.1-.6.1-.7.2-.7l.1.1.2.5.3.4.3.2c.2 0 .3-.1.3-.6v-.3l-.1-.4v-.2l.2-.3.2.1.3.3.5.3.3-.2-.2-.6-.2-.3c-.2-.4-.4-.5-.6-.5h-.3l-.3.1-.2.1-.1-.1c0-.2.2-.6.4-1.1.2-.3.3-1 .4-2 .1-1.3.3-2.2.5-2.2l.3.3v.5l.1.4c.2 0 .5-.3.7-.9l.1-.5v-.1l-.5-1-.5-.2-.2.1v-.6l-.1-.3-.1-.3-.1-.3c-.6.3-.8.5-1 .8l-.4.3-.1-.1.1-.4v-.1c0-.6-.3-1.1-.9-1.5L13 4c-.3.5-.9.9-.8 1.6l-.1.3H12l-.2-.3-.3-.4-.4-.3-.2-.2-.1.2-.1.4v.9l-.2.3-.3-.1h-.5c-.4 0-.7.3-.7.7 0 .5.2 1 .4 1.4l.3.4.3.2.1-.5-.1-.4V8l.2-.3c.1 0 .2.2.3.6l.2 1 .2 1.2.3 1c.2.5.4.8.4.9l.4.4-.1.1-.2-.1-.3-.1h-.2c-.4 0-.5.4-.5 2.1 0 1 .2 2.5.5 3.2l.5 1.4.1.6c0 1.9-2.5 4.8-5.2 6.2-1 .5-1.3 1-1.4 2.1v.3c.4-.2.6-.3.9-.4.8-.2.9-.3 1-.7l.1-.3c0-.1.1-.2.7-.5l.4-.3.3-.3.1.1v.1l-.3.7v.2c0 .5.3 1 .9 1.3.1-.6.2-.8.3-1.1l.5-.7c.2-.3.2-.6.2-1.1l-.1-.9v-.2l.2-.2.2.1.1.5.2.2c.2 0 .6-.3.9-.9l.2-.7v-.3l-.1-.4v-.1l.2-.3h.1l.2.6.3.3.6-.6c.2-.3.2-.7.2-1.1 0-.6.1-.7.3-.7l.1.1.1.3.2.2.6-.6.1-.2-.2-.4-.3-.6c0-.3.1-.5.3-.9l.3-.6c.3-.6.4-.8.6-.8l.2.2-.1.2-.1.3.2.2.5-.2c.1 0 .3-.1.7-.3l.9-.3.5-.1.5.1.6.1.4-.4-.4-.8-.1-.2v-.1l.1-.1c.2 0 .6.4.9 1 2.2 3.5 3 4.3 4.5 4.8s1.9.8 1.9 1.7c0 .5-.3 1.1-.8 1.8-1.1 1.6-1.4 2.2-1.4 3.2v.2l.3-.1.4-.2.6-.1.4-.5v-.1l-.1-.6V27l.2-.5.1-.1.2.2.4.9c.3.4.5.6 1 .8M7.4 9.7l-.3.5-.1.5c-.1.5-.1.5-.1.6l.3.6.6-.7.1-.6-.1-.6-.4-.3" class="a"/><path d="M5.2 5.9l.4.4c.6.5.9 1.5.9 2.9 0 .3 0 .5-.1 1.3 0 .4-.1.8-.1 1.1 0 3.2 1 5.6 2.4 5.6.4 0 .7-.2 1.1-.8l.2-.2.1.2.1.6.1.5v.5l.1.5v.1l-.2.2-.5.1-.7.3c-.4.2-.6.4-.7.5l-.2.6-.1.1c-.1 0-.4-.3-.7-.7-.2-.4-.4-.7-.4-.8l.2-.1h.8l.2-.2-.1-.2-1.2-.5c-.4-.1-.7-.4-.9-.8-.3-.6-.5-1-.5-1.2l.2-.3.2.1.3.1.2-.2-.2-.3c-1-.7-1.5-1.5-1.5-2.2l.2-.3h.5l.2-.2-.1-.1-.4-.2-.4-.4c0-.1-.2-.3-.4-.8l-.4-.7-.2-.5-.2-.2.8-.2c.4 0 .6.2.8.9.2.4.3.7.4.7l.2-.4-.1-.8-.1-.5-.1-.4-.3-.1-.2-.3-.2-.6.1-.4c.3-1 .3-1.4.3-1.7v-.3l.2.3m3.1 18.6l-.7-.2-.5-.2c-.4-.2-.7-.3-1-.3-.4 0-.7.1-1.1.4l.2.2.5.4.5.4.4.2c.6-.1 1-.3 1.7-.9m9.9 4.7l.5-.7c.7-.6 1.1-1.1 1.1-1.4v-.6l.2-.4.2.1.1.3.2.1.4-.3.3-.4.2-.5-.1-.3-.2-.4-.1-.4.2-.3.2.1.2.3.2.1.3-.2.2-.4.1-.2-.2-.2-.3-.2c-.4-.2-.8-.9-.8-1.6l.1-.3.2-.4.1-.4-.3-.8-.3-.5c-.2-.4-.2-.5-.4-.5h-.1l-.2.1-.3.2-.3.4-.4.2-.4.9c0 .7.1.9 1 2.4.3.6.5 1.1.5 1.5 0 1.1-.9 1.8-2.8 2.3l-1.2.3c-.9.2-1.4.8-1.6 1.8.4-.2.5-.2 1.1-.2h.5l.6-.3.8-.7.4-.2.3-.2h.1l.1.1-.2.4c-.3.3-.4.6-.4 1l.2.4" class="a"/><path d="M15 25.2l.8.7.5.4.4-.1.2-.1c.4-.1.6-.1.6-.3l-.1-.2-.6-.5-.8-.3c-.4 0-.6.1-1 .4m8.3 1.4h.7c.6 0 1.1-.5 1.1-1l-.5-.3c-.6 0-1 .4-1.3 1.3" class="a"/><path d="M13.7 8.8l.3.4c.1 0 .2-.3.5-.7.4-.6.7-1.2.7-1.5l-.1-.2-.3.2c-.2.2-.4.3-.9.5l-.4.4v.2l.1.4.1.3m-1.6-1.4l.4.2.2.2v.7c0 .5-.4.5-.5.5l-.2-.3-.6-.6c-.2-.2-.3-.6-.4-1.2v-.1l.2-.2.3.1.6.7m1.1 2.7h-.4l-.3-.2-.4-.1-.4.3c0 .2.1.6.3 1.1l.3.8c.3.7.6 1 1 1 .3 0 .4-.3.6-.9.5-1.3.8-1.5.8-1.9l-.4-.4-.2-.1-.4.3-.5.1" class="d"/><path class="a" d="M13.5 10.8h-.7l-.1.1-.1.1.1.7.1.5.4.4.5-.5v-.5l.1-.6-.1-.2h-.2"/><path d="M73.6 17l.1.4.2.8c.3 1.5.6 1.9 1.3 1.9.4 0 .7-.2.9-.6l.2-.5.2-.2c.3 0 .4.3.5.9 0 .2.1.7.2 1.3.1.4.1.8.1 1.2l-.2.7v.3c.1.5.1.7.1.9 0 1.1-.1 1.4-.3 1.9.1.4.1.6.1.9 0 .2 0 .5-.1.9l-.1.8v.5l.1.3-.1.1-.5-.2-.6-.3-.6-.5c-.5.4-.6.5-1.2.6-.9.2-1.2.3-1.3.5l-.4.2c-.2 0-.3-.4-.3-1 0-.8 0-1.2.2-1.6-.5-.2-.8-.2-.9-.2l-.4.1h-.1l-.1-.2c0-.3.2-.8.4-1.2.3-.6.9-1.1 1.3-1.1l.9-.2c.6-.1.9-.4.9-.8s-.2-.6-.8-.8l-1.1-.4-1-.5-.6-.3-.3-.1-.4.4c0 .4.3.8.7.8l.3-.1.2-.1.2.3c0 .5-.3 1.3-.6 1.6l-.3.4-.2.3c-.1.7-.7 1.6-1.4 2l-.3.2c-.5 1.2-1.8 1.6-2.1 2.5l-.2.1c-.2 0-.4-.2-.6-.6l-.4-.4-.5.1-.4.1h-.9c-.5 0-1.1.1-1.4.3l-.3.1-.2-.4c0-.8.6-2.1 1.4-2.9-.1-.5-.4-.8-.7-.9l-.5-.1-.1-.1c0-.2.2-.3.6-.5.7-.3.9-.4 1.4-.4.5 0 .9.2 1.3.5.7.5.9.6 1.2.6.5 0 1.1-.5 1.1-1 0-.4-.2-.7-.7-1.4-.7-.9-.9-1.4-.9-2.2 0-.5.1-.8.5-1.5l.1-.3-.5-.3c-.3 0-.6.1-1.1.3-.8.4-1.2.7-1.2.9l.1.2.3.2.1.1-.1.2c-.1.1-.2.3-.5.7-.4.5-.7.8-1.1 1.1l-.3.3-.2.4c-.2.3-.7.9-1.1 1.2l-.4.3-.2.4c-.3.5-.7 1.1-1 1.3l-.7.7c-.2.2-.5.8-.7 1.6-.2.6-.3.9-.4.9l-.2-.2c-.5-.6-1-.9-1.2-.9l-.3.1-.7.3-.9.2c-.8.2-1.1.3-1.4.8l-.2.2-.2-.3v-.2s.1-.3.1-.7c.1-.7.3-1.3.5-1.7l.5-.8.1-.4c0-.6-.6-1.1-1.4-1.2l-.3-.2.5-.6c.5-.4 1.1-.7 1.6-.7.3 0 .7.1 1.2.3l.6.2.6.1c.6 0 1.2-.5 1.9-1.8.3-.6.5-1 .5-1.3 0-.7-.3-1-.8-1-.4 0-.8.2-1.1.5l-.4.8v.4l-.2.3c-.2 0-.4-.2-.9-.7l-.7-.8c-.8-.9-.9-1.3-1-2.2-.9-1.1-1.1-1.7-1.1-2.4V15c-.6-.8-.7-1-.7-1.8l.2-.7c-.3-.5-.4-.7-.5-1l-.1-.5-.4-1-.3-.5c0-.3.3-.4.9-.6l.2-.1-.1-.6.1-.6.2-1 .1-.8c0-.2 0-.4-.2-.8v-.4l-.2-.3.2-.2.3.1c.9.5 1.8 1.2 2.5 2 .6.6.8 1.2.9 2.6.8.6 1.1 1.1 1.1 2 0 .5-.2 1-.5 1.5s-.5.7-.5.8l-.2.9c0 .5.1.9.5 1.5.4.7.7 1 1.1 1 .7 0 1.3-1.2 1.3-2.4v-1l.1-.6v-.7l.1-.6v-.3c0-.3-.1-.3-.8-1.2-.9-.9-1.3-1.7-1.3-2.5 0-.7.6-1.3 1.3-1.3l.5.1v-.9l.2-.7c.1-.5.2-.6.4-.6h.1l.5.4.6.4.2.2.3-.7.4-.5.3-.4.2-.2.2-.2.2.4.2.3.3.3c.3.2.5.6.6 1.1l.5-.5.4-.2.3-.1.1.2.2.4c.3.5.4.6.4 1v.5c.8.2 1.2.7 1.2 1.6 0 .7-.3 1.4-1 2.2-.4.5-.5.7-.5 1.1 0 1.8 1.4 2.9 3.7 3h1.7c1.1 0 1.8.1 2.8.5 1.2.4 1.6.5 1.9.5l.5-.3c0-.4-.6-.7-2.7-1.2-4.2-1.2-6.1-2.9-6.1-5.7C66.2 5.7 68 4 70.4 4c.7 0 1.9.2 2.6.4l1.1.4.6.1c.4 0 .5-.2.6-.9l.3-.4c.3 0 .8.4 1.2 1 .4.5.7 1.3.7 1.7 0 .6-.3 1-.9 1.3-.6.9-1.3 1.3-2.2 1.3-.7 0-2-.5-3.5-1.4-.6-.4-.9-.5-1.2-.5-.5 0-.8.3-.8.7 0 .4.3.6 1 .9 1.2.4 1.5.6 1.8 1 1.3.2 1.9.5 2.7 1.1 2.4.8 3.7 2.2 3.7 4.1 0 1.7-1.1 2.9-2.7 2.9-1-.5-1.2-.5-1.8-.7"/><path d="M76.2 28.3l-.1-.5v-.3c.1-.5.1-.7.1-1L76 26l-.3-.4-.3-.7.1-.2h.1l.2.1.3.1c.2 0 .2-.2.2-.7 0-.7-.1-1-.5-1.3l-.4-.3v-.2l.2-.2.3.1.3.1h.1l.1-.2v-.1l-.1-.5c-.1-.6-.2-.8-.3-.8l-.7.1h-.1c-.8 0-1.8-.8-2-1.6l-.5-1.7c-.1-.5-.6-1.1-1.2-1.6l-.5-.3-.5-.1h-.2l.3-.2c.7 0 1.4.1 2.3.4.8.3 1.3.4 1.7.4 1.3 0 2.1-.7 2.1-1.8 0-.6-.2-1.3-.5-1.7-.3-.4-.7-.8-1.2-1.1l-.2-.1-.1.1v.3l-.2.2-.5-.5c-.5-1-1.2-1.6-2-1.6l-.3.2.1.3.2.5.1.2-.1.1-.4-.2-.4-.4-.3-.5c-.3-.4-.6-.6-1.1-.9l-.6-.3-.3-.1-.1.1.1.3.2.5-.1.1c-.2 0-.5-.3-1-.9-.3-.5-.5-.9-.5-1.4 0-1.1.8-1.9 1.9-1.9.6 0 1.2.2 1.9.6l1.2.7c.4.3 1 .5 1.4.5.2 0 .3 0 .7-.1l.3-.1.1-.2-.2-.2c-.6 0-1.8-.5-2.5-1-.5-.3-.7-.5-.9-.5l-.4-.3.1-.1h.2l1.1.4 1.1.4c.5.2 1.4.4 1.7.4.5 0 .8-.3.8-.8l-.2-.7-.4-.6-.2.3v.4l-.5.6-.4-.1-1.4-.5c-1.5-.5-2-.6-2.7-.6-2 0-3.5 1.4-3.5 3.2 0 2.1 1.4 3.3 5 4.6 3.5 1.2 4 1.5 4 2.4 0 .5-.5 1-1.1 1l-.6-.1c-.2 0-.7-.2-1.8-.4-1.1-.3-2-.4-3.2-.4-2.6 0-3.8.4-5.1 1.6l-.8.3h-.6l-.7.5-.4.7-.4.2c-.3 0-.4-.2-.7-.8l-.5-.8-.5-.5-.1-.2.1-.2.2-.4.1-.3v-.2l.2-.1c.2 0 .2.1.2.7l.2.7.3.6.2.1c.3 0 .6-.6.7-1.3.1-.5.1-.7.2-.7s.2.1.4.5l.3.4.3.2c.2 0 .3-.1.3-.6v-.3l-.1-.4V14l.2-.3.2.1.3.3.5.3.4-.3-.3-.6-.2-.3c-.2-.4-.3-.5-.5-.5h-.3l-.3.1-.2.1-.1-.1c0-.2.2-.6.4-1 .2-.3.3-1 .4-2l.1-1.2c.1-.7.2-1 .3-1l.1.1.1.4v.2l.1.7.4-.3.3-.5.1-.7c0-.6-.3-.8-1.1-1.1l.1-.1v-.7l-.1-.3v-.2l-.1-.3-.3.1c-.5.3-.7.4-.8.6l-.4.4-.1-.1.1-.4v-.1c0-.6-.3-1.1-.9-1.5L61 4l-.2.3-.3.4-.3.7v.2l-.1.2H60l-.2-.3-.2-.3-.5-.3-.2-.2c-.2.5-.3.6-.3 1.3v.2l-.2.4-.3-.1-.4-.1c-.4 0-.6.3-.6.8s.1.8.4 1.3l.6.6.1-.6-.1-.4v-.2l.2-.3c.1 0 .2.2.3.6l.2 1 .2 1.2.3 1c.2.5.4.8.4.9l.3.5-.1.1-.2-.1-.3-.1h-.2c-.4 0-.5.3-.5 2.1 0 1.1.2 2.5.5 3.2l.5 1.4.1.6c0 1.9-2.5 4.9-5.2 6.2-1 .5-1.4 1-1.4 2.4.4-.2.6-.3.9-.4.8-.2.9-.3 1-.7l.1-.3c0-.1.1-.2.7-.5l.4-.3.3-.3.1.1-.3.7v.2c0 .5.3 1 .9 1.3l.1-.3c.1-.4.2-.7.3-.8l.5-.7c.2-.3.2-.4.2-1.1v-1l.2-.2.2.1.1.5.3.2c.2 0 .6-.3.9-.9l.2-.6-.1-.8v-.2l.2-.2h.1l.2.6.3.3c.4 0 .8-.8.8-1.7 0-.5.1-.7.3-.7l.1.1.1.3.2.2.4-.3.2-.3.1-.3-.2-.3-.3-.5c0-.4.2-.8.6-1.6.4-.7.5-.8.6-.8l.2.2-.1.2-.1.3.2.2.5-.2.7-.3c.5-.2.8-.3.9-.3l.5-.1.5.1.6.1.4-.4-.2-.4-.2-.4-.2-.2v-.1l.1-.1c.2 0 .6.4 1 1 2 3.3 3 4.3 4.5 4.8s1.9.8 1.9 1.7c0 .5-.3 1.1-.8 1.8-1 1.4-1.4 2.3-1.4 3.2v.2l.3-.1.4-.2.6-.1.4-.5V27l.3-.6.2.2.4.9c-.1.4.1.6.7.8M55 10.7v.7c0 .4.1.6.2.6l.6-.7.1-.7-.1-.5-.4-.4c-.2 0-.3.2-.4 1" class="a"/><path d="M53.3 5.9l.4.4c.5.5.9 1.6.9 2.6v.4l-.1 1.2v1c0 3.4 1 5.7 2.4 5.7.4 0 .8-.3 1.1-.8l.2-.2.1.2.1.6.1.5.1.5.1.5c0 .3-.1.3-.7.4l-.7.3c-.4.3-.6.4-.7.5l-.3.6-.2.1c-.2 0-.4-.2-.6-.7-.3-.5-.4-.7-.4-.8l.2-.1h.8l.2-.2-.1-.1L55 18c-.3-.1-.6-.4-.8-.8-.3-.5-.5-.9-.5-1.1l.2-.3.2.1.3.1.1-.1.1-.1-.2-.3c-1-.7-1.5-1.5-1.5-2.2l.1-.3h.2l.4.1.2-.2-.2-.2c-.6-.3-.8-.5-1.2-1.4-.3-.7-.5-1-.7-1.3l.8-.2c.4 0 .6.2.8.9.2.4.3.7.4.7l.1-.3-.1-.8-.1-.6-.1-.4-.4-.4-.4-.8.1-.5.2-.6c.1-.4.2-.9.2-1.1v-.2l.1.2m3.1 18.6c-.5-.1-.6-.1-1.2-.4-.4-.2-.7-.3-1-.3-.4 0-.7.1-1.1.4l.2.2.5.4.5.4.4.2c.5-.1 1-.3 1.7-.9m9.9 4.7l.5-.7c.7-.6 1.1-1.1 1.1-1.4v-.6l.2-.4.2.1.1.3.2.1c.2 0 .3-.1.6-.7l.2-.5-.1-.3-.2-.4-.1-.4.2-.3.2.1.2.3.1.1.3-.2.2-.4.1-.2-.2-.2-.4-.2c-.4-.2-.8-.9-.8-1.6l.1-.3.2-.4.1-.4-.3-.8-.3-.5c-.1-.4-.2-.5-.4-.5l-.3.1-.3.2-.4.4-.4.2c-.2.1-.4.6-.4 1 0 .6.1.9 1 2.4.4.6.5 1.1.5 1.5 0 1-1.1 1.9-2.8 2.3-2.1.4-2.5.8-2.8 2.1.4-.2.5-.2 1.1-.2h.5l.6-.3.9-.7.4-.2.3-.2h.1l.1.1-.2.4-.4.8.5.5" class="a"/><path d="M63 25.2l.8.7.5.4.4-.1.2-.1c.4-.1.6-.1.6-.3l-.1-.2-.3-.3-.3-.3-.8-.3c-.3.1-.6.2-1 .5m8.4 1.4h.8l.5-.1.5-.6.1-.3-.4-.3c-.8 0-1.3.4-1.5 1.3" class="a"/><path d="M61.8 8.8l.3.4c.1 0 .3-.4.5-.8.4-.6.7-1.1.7-1.5l-.1-.2h-.1l-.3.3-.9.5-.4.4v.2l.2.4.1.3m-2.3-1.9l-.3-.1-.2.2v.1l.1.4c.1.4.3.7.3.7l.4.7.6.4.2-.3.1-.5.1-.5v-.1l-.2-.2-.4-.3-.7-.5m1.7 3.2h-.4l-.3-.2-.4-.1-.4.4c0 .2.1.6.3 1.1l.3.8c.3.7.6 1 1 1 .3 0 .6-.3.8-.8l.3-1.2.5-.8-.6-.6h-.1l-.4.3-.6.1" class="d"/><path class="a" d="M61.6 10.8h-.7l-.2.1v.1l.1.7.1.5.3.4.5-.5.1-.5V11l-.1-.2h-.1"/><path d="M26.1 65.7c.2.6.3.8.3 1.2l.1 1.1c0 1.1.4 1.6 1.1 1.6l.6-.2.3-.3h.1l.3.3v.4c0 .2 0 .6.1 1.2l.1 1c0 .6 0 .8-.2 1.3.2.5.3 1.1.3 1.6 0 .6-.1.9-.3 1.3.1.4.1.6.1.9 0 .3 0 .6-.1 1-.1.5-.1 1-.1 1.2v.1l-.1.2-.3-.2-.4-.3c-.2 0-.2.1-.5.9-.1.2-.3.6-.6 1l-.5.7-.2.5-.2.1c-.4 0-.9-.9-1.4-2.6-.1-.5-.3-.7-.6-.7l-.4.3-.2.4-.1.1c-.2 0-.5-.4-.7-.9-.2-.4-.3-.8-.3-1.2 0-.8.6-1.4 2.4-2.4.8-.4 1.1-1 1.1-2 0-.8-.2-1.3-.9-1.8-.5-.4-.9-.6-1.1-.6l-.4.4.5.5c.4.1.6.3.6.5s-.2.5-.4.9c-.3.4-.4.6-.8.9-.1.7-.5 1.2-1.2 1.7-.2.4-.2.6-.5 1l-.5.7-.4.8c-.1.4-.1.5-.2.5-.2 0-.6-.4-1-.9l-.3-.9c-.3.2-.4.2-.9.3l-.7.2c-.4.2-.5.3-.6.3l-.2-.2V77c0-.8.3-1.7.8-2.3-.4-.4-.9-.6-1.3-.7l-.2-.1.2-.5.5-.5c.4-.3 1-.5 1.5-.5.3 0 .8.1 1.5.4l.6.1.4-.5c0-.5-.2-1.2-.7-2.4-.3-.8-.5-1.3-.5-1.7 0-.9.4-1.8.9-2.1l-.6-.2-.8.3-.6.5.2.2.2.4c0 .6-.5 1.5-1.3 2-.2.9-.6 1.4-1.4 1.8-.1.5-.2.6-.6 1.2-.7.9-.8 1.2-1 1.8l-.2.4-.6-.4-.4-.5c-.1-.2-.2-.3-.3-.8l-.4.1H12c-.6 0-1.2.1-1.5.3l-.2.1c-.2 0-.3-.3-.3-.8 0-.9.3-1.7.9-2.5l-.5-.5-.2-.2-.3-.2-.2-.2c0-.1.4-.5.8-.8.5-.3.9-.5 1.2-.5.4 0 .6.1 1.2.6l.8.5.4-.2.1-.4c0-.5-.6-1.3-1.2-1.8-.5-.3-1-.5-1.5-.5-.7 0-1.3.4-1.6.9l-.3.6-.2.2c-.2 0-.3-.1-.8-.7l-.7-.8-.4-.7-.1-.3-.3-.2c-.5-.4-.9-1.1-1.1-2.1l-.1-.3c-.6-.8-1-1.7-1-2.6l.1-.4c-.4-.4-.4-.5-.7-1.4-.2-.7-.3-1-.6-1.3l-.4-.3.6-.3.5-.1h.5v-.7c0-.4 0-.7.1-1.2l.1-.5-.1-.4-.1-.4-.1-.2.2-.1.3.1c.4.2.8.4 1.1.7.9.7 1.6 1.8 1.6 2.4v.2l-.1.4.2.4.3.4.4 1c0 .2-.1.3-.5.9-.3.4-.4.8-.4 1.2 0 .5.2 1.1.5 1.6s.7.8 1 .8c.6 0 .8-.5.9-1.9 0-.7.1-1.4.2-2v-.4l-.3-.5-.8-.9c-.7-.9-1-1.3-1-1.9 0-.7.5-1.2 1.1-1.2h.3v-.2l.1-.7c.2-.6.4-1 .5-1l.2.1.5.2.5.3c.1-.4.2-.6.4-.9.3-.4.7-.8.8-.8l.4.3.5.5.3.5.1.2.3-.2.4-.2.5-.2.3-.1c.1 0 .1.2.3 1 .1.6.1.7.2 1.1.8.1 1.2.6 1.2 1.5 0 .8-.4 1.7-1.3 2.6l-.3.6c0 2.3.8 3 3.6 3.3 1.8.2 2.3.3 4.4.9 1.1.3 1.7.5 2.2.5.5 0 .8-.2.8-.5 0-.5-.3-.6-2.4-1.1-4.8-1-6.6-2.6-6.6-5.8 0-2.2 1.7-3.9 3.9-3.9 1 0 1.9.3 3.3 1.1 1.3.8 1.6.9 1.9.9.3 0 .5-.2.5-.8l.3-.5.8.5c.4.5.6.8.6 1.5 0 .9-.5 1.5-1.5 1.8l-.2.3c-.5.6-1 .8-1.8.8-.7 0-1.7-.3-2.3-.7l-1.2-.9c-.5-.4-.9-.5-1.3-.5-.5 0-.8.3-.8.8s.3.9.9 1.1l1.2.4c.4.1.6.2 1.1.5l.6-.1c.7 0 1.5.2 2.2.5l.5.2.6.2c1.5.4 2.7 2 2.7 3.6 0 1.8-1.2 2.9-3.1 2.9l-.5.2"/><path d="M25.6 81l.2-.3.4-.4c.3-.3.5-.8.5-1.3l-.1-.8-.1-.5.2-.3.2.1.4.4.6.4v-.8c0-.6-.2-1.3-.6-1.7l-.3-.5.1-.2.1.1.4.3.2-.7c0-.5-.2-1-.5-1.4L27 73l-.1-.1.2-.2.3.1.2.1c.2 0 .3-.3.3-1v-.8c0-.5-.1-.6-.3-.6h-.2c-1.3 0-1.8-.8-2.2-2.9-.2-1.5-.8-2.6-1.5-2.9-.4-.1-.6-.2-.6-.3l.2-.1.5.1c1 .4 1.9.6 2.6.6 1.2 0 2.2-.9 2.2-2.1 0-.9-.4-1.8-1.2-2.5l-.6-.4h-.2l.1.4.1.3v.1l-.1.1-.2-.1-.5-.7c-.4-.5-1.2-1-1.8-1l-.3.2.2.3.2.4v.1l-.1.1c-.1 0-.2-.1-.7-.7-.5-.5-1.4-1-1.9-1l-.2.1-.1.1.2.3.3.4-.1.1c-.1 0-.5-.2-1.1-.7-1-.8-1.4-1.5-1.4-2.3 0-1 .7-1.8 1.6-1.8.5 0 1.2.3 1.7.6l1.3 1c.6.4 1.3.7 2 .7l.4-.1.2-.2-.2-.1c-.5-.1-.8-.3-1.1-.5l-1.3-1c-.5-.4-.8-.6-1-.7-.7-.4-.8-.4-.8-.5l.1-.1.2.1.7.3c.2.1.6.3 1.1.6 1.4.9 2.1 1.2 2.9 1.2.8 0 1.3-.5 1.3-1.3l-.1-.4-.1-.3-.2-.1-.1.1-.1.5-.1.2-.2.3-.5.2c-.4 0-.8-.2-2-1S22.6 53 21.7 53c-1.9 0-3.3 1.5-3.3 3.3 0 2.6 1.6 3.7 6.5 4.8 1.9.4 2.7 1 2.7 1.8s-.6 1.2-1.6 1.2l-.7-.1c-.2 0-1.1-.3-2.7-.7-1.1-.3-2.3-.5-3.4-.5-1.9 0-3.2.6-4.1 1.8l-.3.2-.2-.1-.4-.3-.9-.4-.5.2-.3.2c-.1 0-.4-.3-.6-.7-.3-.6-.4-1.2-.4-1.8l.2-.4.2.2.2.7c.1.4.3.7.5.7l.4-.3.2-.4c.2-.5.2-.5.3-.5.2 0 .2.1.3.6l.2.4.3.5.3.1c.2 0 .4-.4.4-.8h.2v-.5l.1-.2.2.1.4.4.4.1.3-.1.1-.2-.4-.5c-.1-.1-.3-.5-.5-1l-.2-.3-.2.1-.3.1-.2.1h-.1l-.2-.2.5-.6.3-.7c0-.4.1-.8.2-.8l.1-.9c0-.5.2-1.3.4-1.8l.1-.2.2.4v.4l.2.5.4-.4.2-.6.1-.5c0-.5-.3-.9-.7-.9h-.2l-.2.1-.3-.3v-.9l-.1-.5v-.3l-.2.1-.3.2-.4.3-.3.3-.2.1c-.2 0-.2-.1-.2-.5V53c0-.3-.1-.6-.7-1.2l-.1-.2-.1.2-.3.5-.3.7v.5l-.1.2-.2-.2c-.4-.4-.5-.5-1.1-.7l-.1.2-.2.5v.9l-.1.2-.2-.1-.3-.1c-.5 0-.8.3-.8.7 0 .3.1.5.6 1.3l.6.6.1-.4v-.3l-.1-.4.1-.2c.2 0 .5.7.6 1.6l.1 1 .3 1c.2.5.5.8.7 1l.4.4-.1.2-.5-.2h-.2c-.5 0-.7.3-.7 1.2 0 1.1.7 2.6 1.5 3.3l1.2 1c.6.5 1.1 1.3 1.1 1.9 0 .8-.8 1.5-2.2 2l-.8.3c-.7.2-.9.7-1.2 1.9l.7-.1h.5l.6-.5v-.2l.2-.2.4-.2.3-.2.1-.1.1.2-.1.2-.1.9c0 .6.1 1 .4 1.4l.1-.3.4-.7c.4-.5.7-1.2.7-1.6v-.1l-.1-.6.1-.3.2-.1.3.3.2.2.4-.5.1-.5-.1-.3-.1-.3.1-.2.1-.1.2.1.2.2.2.1.4-.3.4-.7-.2-.2c-.5-.4-.9-.9-.9-1.4l.1-.4.3-.7.2-.5h.1l.1.2-.1.3-.1.5.3.3.4-.1c.8-.3 1.4-.5 1.8-.5l.9.3.2.1.2-.1.1-.1-.2-.3-.2-.4.1-.1c.4 0 1 1.3 1.6 3.3.5 1.6.6 1.8 2.1 2.6 1.3.7 1.8 1.5 1.8 2.6 0 1.2-.3 2.6-1 4.6-.2.6-.3 1-.3 1.4 0 .3.1.5.3 1.2l.2.6h-.2" class="a"/><path d="M19.6 77.3c.2-.4.2-.4.5-.9.4-.6.6-1 .6-1.3v-.3c0-.4.1-.6.2-.6l.1.1.1.2.2.1.3-.2.3-.9v-.6l.2-.2.2.2.2.2.2-.2.2-.3.2-.2v-.1l-.2-.2c-.5-.3-.7-.9-.7-1.8 0-.7-.1-1.2-.1-1.4 0 0-.2-.4-.5-1.1l-.3-.9-.3-.3c-.7 0-1.2.6-1.2 1.4 0 .5.2 1.2.5 2.1.5 1.2.6 1.7.6 2.1 0 .9-.4 1.4-1.7 1.8-1.5.5-2.2 1.3-2.4 2.7l.3-.1.4-.1.4-.1.7-.5.1-.4.2-.2.2-.1.2-.1.1.1-.1.3-.1.6c0 .5.1.8.4 1.2M5.8 53.5l.1.3-.1.7v.5c0 .5.1 1 .2 1.4l.2.6v.1l-.1.2-.3-.2-1-.4-.4.1.1.3.4 1 .5.8.6.4.2.2.1.2-.1.1h-.5l-.1.1c0 .1.1.4.2.8l.3.7.4.4.5.3.2.3-.1.1h-.4l-.1.2c0 .2.2.5.5 1 .4.5.7.7 1.1.7h.4l.3.2-.2.2-.5.3.1.3.2.3.5.4.4-.2.8-.6c.9-.2 1.1-.3 1.1-.5l-.1-.3c-.3-.5-.4-.8-.4-1.3l-.2-.5-.2.2-.9.5c-.9 0-2-1.4-2.5-3.2-.1-.4-.2-.9-.2-1.4 0-.5.1-1 .2-1.6.2-.8.3-1.2.3-1.3v-.3c0-.6-.6-1.4-1.5-2.1" class="a"/><path d="M7.7 57.1c-.2.4-.4 1.2-.4 1.7l.2.5.1-.1.3-.5.2-.3.2-.4-.6-.9m2.8 11.6l.3.3c.5.5.6.6.8.6l1-.3.2-.2-.3-.3-.3-.3-.7-.4c-.2.2-.5.3-1 .6m6 4.7l.5.3.4.3.4.1.3-.1.5-.2.5-.2.2-.2-.3-.1-.3-.2c-.6-.3-.7-.3-1-.3-.4 0-.9.2-1.2.6m6.5 5.2c.2-.4.3-.5.9-.5.7 0 1.3-1.2 1.3-2l-.1-.1-.2.1-.4.2-.7.3c-.5.2-.9.9-.9 1.4l.1.6" class="a"/><path d="M11.9 56.2l.3.4.6.4.2-.2.1-.4V56c0-.3-.1-.5-.9-.6l-.4-.1-.3-.2-.1.1v.1l.1.4.4.5m3.3-1.2l-.4.3-.5.1-.5.4v.5l.3.6h.1l.1-.1.3-.6.6-.6.2-.5-.1-.1h-.1M14 57.9l.4-.2.2-.1.3.4c0 .3-.2.7-.5 1.3-.3.6-.6 1-.9 1-.4 0-.9-.6-1.4-1.6l-.2-.6.4-.5.3.1.2.2.7.2.5-.2" class="d"/><path d="M13.4 58.6l-.3-.1-.2.3.5 1.1.2.1c.2 0 .3-.3.4-.8l.1-.4v-.1l-.2-.2h-.1" class="a"/><path d="M70.9 65.3c.4.6 1.1 1 1.6 1l.7-.1.3-.1.2.2-.1.5c-.4 2.2-1.1 1.5-1 2.1v.1c0 .6-.2 1-.7 1.3l-.2.1-.1.2c-.1.5-.2.8-.3.9l-.5.7c-.3.4-.5.7-.6 1.1l-.4.3-.5-.7-.1.2-.3.2-.5.3-.4.3-.3.4-.1.1c-.1 0-.3-.2-.4-.6l-.3-.8-.1-.8c0-.4 0-.6.2-.9-.5.1-.7.1-.9.2l-.2.1-.1-.2.1-.4.3-.9c.3-.7 1.1-1.3 1.8-1.3l.7.1.4.1.5-.5-.2-.3s-.4-.1-.9-.3c-.4-.1-.6-.3-1.1-.9-.4-.4-.5-.5-.6-.5l-.2.2v.5c0 .7-.2 1.4-.7 2.3l-.7 1.3c-.3.6-.5 1.1-.5 1.6s.2 1 .5 1.1l.4.1.1.1.1.1-.1.2-.5.6c-.4.6-.7.8-1.3 1-.3.8-.8 1.2-1.7 1.5l-.1.2c-.3.5-1 1-1.4 1h-.1c-.1.5-.4 1-.9 1.3l-.6.4-.1.2-.4.4c-.3 0-.5-.3-.7-.7l-.2.2-.5.3c-.1.1-.4.1-.9.3-.6.2-1.2.4-1.3.6l-.2.4h-.1l-.3-.4c-.1-.5-.2-1.1-.2-1.4 0-.9.3-1.5 1.2-2.4v-.2c0-1.4 1.1-2.4 2.7-2.4h.3l.9.1h.1c.5 0 .9-.2 1.4-.6.6-.5.8-.8.8-1.4 0-.2-.1-.4-.2-1-.1-.4-.2-.8-.2-1.2 0-1.1.8-2.4 1.8-3.1l.5-.6-.1-.1-.3.2-.6.4-.4.2-.5.2-.2.2.1.2.1.2-.1.3-.4.6c-.4.6-.6.8-1.1 1-.3.8-.7 1.3-1.3 1.4-.5 1-.9 1.3-1.8 1.4-.1.4-.3.7-.8 1.2l-.3.4-.3.4-.6-.4-.2-.3-.2-.4-.3-.2H54l-.6.1-1 .6-.3.5-.1.1c-.2 0-.4-.5-.4-1.4 0-.7.1-1.2.4-1.6l.7-1 .2-.4-.1-.3-.4-.3-.5-.1-.1-.1.1-.2.6-.6c.6-.4 1.1-.5 1.5-.5.4 0 .9.2 1.3.4l.7.5.4.1c.3 0 .6-.2.8-.7.2-.4.3-.8.3-1.2 0-1-.7-1.7-1.7-1.7-.4 0-.9.2-1.3.5l-.3.3-.2.5-.2.2c-.1 0-.4-.4-.7-.8l-.4-.9c-.2-.5-.2-.9-.2-1.3V64c-.3-.5-.5-.9-.5-1.6 0-.2 0-.4.2-.9-.2-.4-.3-.6-.3-1.1v-.3l.1-.4.1-.3c-.2-.3-.3-.5-.6-1.7-.1-.6-.2-.9-.3-1.1l-.1-.2c0-.1.4-.3.8-.3h.4l-.1-.5.2-1c.1-.4.2-.5.2-.6l-.1-.8-.2-.5-.1-.3.1-.1c.5 0 1.5.5 2.2 1.3.8.7 1 1.3 1 2.3v.6c.7.6 1 1.1 1 1.7 0 .4-.1.7-.5 1.1-.7.7-.9 1.1-.9 1.9 0 1.4.4 2.1 1.2 2.1.7 0 1.2-.7 1.3-1.8l.1-1 .1-.9.1-.7c0-.3-.2-.8-.9-1.6s-1-1.3-1-2c0-.8.5-1.4 1.3-1.4l.5.1c0-.4 0-.5.3-1.2.2-.5.4-.8.5-.8l.2.1.3.3.3.2.2.2c.2-.6.3-.8.8-1.3l.6-.5.2.1.3.4.4.5c.2.2.2.3.3.8l.3-.2.4-.2.3-.2.2-.1.1.2.2.6.3.7.1.7h-.4.2c.5 0 .9.6.9 1.3 0 .9-.7 2.1-1.7 2.7l-.1.7c0 2 .5 2.5 3.7 2.9.8.1 1.5.3 2.1.4.1 0 .8.3 2 .7.7.2 1.2.3 1.5.3l.6-.3c0-.4-.5-.7-2.1-1.3l-2.2-.9c-2.3-.9-3.4-2.3-3.4-4.3 0-2.4 1.8-4.2 4.2-4.2.9 0 1.8.2 3 .6 1.6.6 1.7.6 1.9.6.3 0 .5-.2.5-.7 0-.4.1-.5.4-.5.3 0 .7.3.9.8.2.4.3.9.3 1.3 0 .8-.4 1.4-1.3 1.6-.5.7-1.2 1.1-2.1 1.1-1 0-1.5-.2-3.3-1.3-.6-.4-.9-.5-1.3-.5-.6 0-1.1.4-1.1.9s.4.8 1.2 1c.5.1.6.2.9.4l.4-.1c.8 0 1.9.5 2.7 1.2 1.6.5 3 2.2 3 3.6 0 1.6-1.4 3-2.9 3-.2.3-1 .2-1.7 0"/><path d="M69.9 72.4l.1-.3.1-.4.3-.4c.3-.3.4-.8.4-1.3l-.1-.5-.1-.2.1-.1.1-.1.3.2.3.2.3-.5.1-.3-.2-.7-.1-.3.1-.2.3.2.2.1c.2 0 .3-.2.4-.6l.1-.4-.1-.1h-.4c-.5 0-1.1-.3-1.4-.7l-.8-.7-.7-.9-.6-.4-.2-.2.2-.2c.1 0 .6.2 1.3.5.7.3 1.9.6 2.6.6 1.2 0 2.2-1 2.2-2.2 0-.7-.3-1.3-1-2.1l-.5-.3-.1.2.1.3v.2l-.1.2c-.2 0-.3-.3-.5-.7-.2-.6-.5-.9-1.3-1.3l-.8-.3-.1.1.1.3.2.5-.1.2c-.2 0-.2 0-.6-.6-.2-.3-.7-.7-1.2-.9l-.4-.1-.2.1.1.2v.1l-.1.1c-.2 0-.6-.4-1-.8-.4-.5-.7-1.1-.7-1.5 0-1 .9-1.9 2-1.9l.7.1.9.5 1.1.7c.6.4 1.4.7 1.9.7.2 0 .3 0 .8-.2l.4-.3-.1-.1h-.6c-.3 0-1-.4-1.6-.7l-1.2-.8-1.1-.4-.1-.1.1-.1.3.1 1 .3c.2.1.6.3 1.2.5 1.1.6 1.8.8 2.3.8.6 0 1-.4 1-1l-.1-.7-.2-.3-.1-.1-.1.2v.3c0 .5-.2.6-.7.6-.4 0-1-.2-2.3-.7-1.2-.5-2-.7-2.8-.7-1.9 0-3.6 1.6-3.6 3.4 0 1.6 1 2.8 3.1 3.6l2.2.9c1.8.7 2.5 1.3 2.5 2 0 .6-.5 1-1.4 1-.4 0-.8-.1-1.7-.4-2-.7-3.4-.9-4.6-.9-1.9 0-3.3.5-4.4 1.7l-.4.2-.4-.1-.6-.2-.6.3.3.3-.2.2-.7-.7-.3-.7-.1-.7v-.5l.1-.5.1-.4.1-.1.2.4v.3c0 .7.3 1.4.6 1.4s.5-.5.7-1.3l.2-.3c.1 0 .2.1.2.5l.4.8.3.2c.2 0 .3-.3.5-1.1l.2-.5.1.1.2.3.3.3.3.1.2-.1.2-.2-.2-.2c-.2-.2-.3-.4-.5-.9l-.2-.6-.1-.2h-.3l-.5.2h-.1l-.1-.1.2-.3c.7-.5 1-1.4 1.2-2.7.1-.8.2-1.1.5-1.5l.2-.2.2.2-.1.4-.1.3v.1l.1.2.3-.1.3-.4.3-1.1-.2-.6-.4-.3h-.4l-.2-.2v-.5l-.2-.6-.1-.3-.1-.3-.2.1-.4.2-.3.3c-.4.4-.4.5-.5.5l-.1-.1v-.1l.1-.5c0-.4-.3-1.1-.7-1.5-.5.5-.8 1.1-.8 1.6v.3l-.1.2-.2-.1-.3-.4-.4-.3-.2-.2-.1.2c-.3.5-.3.8-.4 1.2l-.1.4-.2-.1c-.4-.2-.4-.2-.6-.2-.5 0-.8.3-.8.8l.3.9c.2.4.6.8.7.8l.1-.2v.2-.4l-.1-.3.1-.1c.2 0 .4.7.6 2 .1 1.2.5 2 1 2.5l.2.3-.1.1-.3-.1-.3-.1-.6.6-.2 1.5-.2 2.1c0 .4 0 .9.2 1.5.1.6.2 1 .2 1.2 0 1.5-1 2.8-2.5 3.2l-1.6.5c-1 .3-1.5 1-1.7 2.2.3-.2.3-.2.7-.3l.5-.1.4-.1.3-.3.4-.5.4-.3.1.1-.2.4-.2.7c0 .3.1.5.4 1l.1-.3.4-.5c.4-.5.6-.9.6-1.2 0-.4 0-.5.1-.5l.1.2.1.2.2.1.2-.1.4-.4.3-.5.1-.5v-.3l.1-.2.3.3.2.1.2-.1.5-1v-.5l-.1-.4.1-.1.4.5.2.3.5-.4.2-.3.1-.3-.1-.3-.2-.3-.1-.3c0-.3.1-.7.4-1.2l.3-.6.1-.2.1.1v.7l.2.1.3-.1.6-.2.6-.3c1-.6 1.3-.7 1.8-.7.3 0 .7.1 1.2.4l.3.1.2-.1.1-.2-.1-.3v-.3l.1-.1.2.1c.1.1.3.5.6 1 .5.9 1.1 1.4 1.6 1.6l1.1.3c.4.1.4.2.4.7 0 .8-.4 1.5-1 1.9l-.9.6c-.3.2-.6.8-.6 1.3 0 .3.1.9.2 1.3l.2-.2.4-.3.4-.4.2-.6.2-.5.3-.4.1.4v.2c.1.4.1.6.4 1.1" class="a"/><path d="M54.7 79.8c0-1.2.4-1.8 2.2-2.7 3.5-1.8 5.4-3.4 5.4-4.6 0-.3-.1-.6-.3-1.4-.1-.5-.2-.9-.2-1.1 0-.6.5-1.4 1.1-2l.5-.4.5-.8v-.3l.4-.4h.2l.2-.1.2.1.1.2.2.2.2.1.2-.1.3-.1.2.2c0 .5-.3 1.3-.9 2.1-1 1.3-1.3 2.1-1.3 2.9 0 .7.2 1.3.6 1.7l.1.2-.2.3-.2.2-.5.4-.2-.2-.1-.3-.1-.1-.1.1-.1.3v.4l-.2.5-.4.4-.2.1-.2-.2-.2-.5-.1-.1-.2.4c-.1.6-.2.9-.3 1.1l-.4.3-.3.2-.2-.1-.2-.4-.1-.1c-.1 0-.2.2-.2.6-.1.9-.3 1.3-.8 1.7-.4.3-.5.4-.6.7-.2-.3-.3-.6-.3-1l.1-.5.2-.4-.1-.1-.1.1-.3.3c-.5.3-.5.4-.6.9-.2.7-.5 1-1.2 1.2-.9.2-.9.2-1.2.5l-.3-.4M53 53.2v.7l-.1.4-.1.6c0 .5.1.7.4 1.2l.3.9-.1.2-.1-.1-.2-.3c-.2-.2-.3-.3-.7-.3H52c.2.4.2.6.3.9.2.8.2.9.7 1.3.5.4.5.5.5.6l-.2.2H53l-.3.5.2.7.2.3.3.3.1.3-.2.2-.2-.1h-.2l-.2.2c.1 1.1.3 1.7 1.4 2.1l.1.2-.2.2-.3-.1h-.3l-.3.2.1.4.1.4c.1.4.2.7.4.7l.2-.1c.4-.3 1.1-.5 1.6-.5s1 .1 1.2.1l.2.1.1-.3.1-.5.1-.8.1-.6v-.3l-.2.2c-.4.4-.7.5-1.2.5-1.2 0-1.9-1.3-1.9-3.7 0-1 .1-2.3.4-3.9l.1-.7c0-.9-.6-1.7-1.5-2.3" class="a"/><path class="a" d="M54.9 57.5v.4l-.1.4v.7l.2-.3.2-.2.4-.8-.1-.3-.4-.4-.2.5m-2.4 12l.6.5c.4.4.6.5 1 .5l.4-.1.3-.1.3-.1.2-.1-.5-.4-.6-.4-.6-.2-1.1.4m3.5 7.2c0-.8.8-1.5 1.8-1.5.5 0 .8.1.8.3 0 .1-.2.3-.7.6 0 0-.3.2-.7.4-.5.3-.7.4-1.1.6l-.1-.4m10.4-6.2l.7-.2h.5l.3-.2.4-.3c.5-.4.5-.4.5-.5 0-.1-.2-.2-.6-.2-.9.1-1.4.5-1.8 1.4"/><path d="M58.7 54.8l.4.2.5.3c.4.2.5.2.5.4l-.1.3-.1.4-.4.4c-.2 0-.4-.3-.6-.8l-.4-1v-.1l.1-.1m3.5.3l-.6.3-.5.1-.2.3v.9l.3.3.2-.1.3-.6.5-.6.3-.4.1-.2-.2-.1-.2.1m-2.6 2.4l.4.3.3.1.6-.2.3-.2.2-.1.4.5c0 .4-.3.8-.7 1.3l-.3.6-.6.4c-.3 0-.5-.2-.9-1.1-.3-.7-.5-1-.5-1.4l.3-.5.5.3" class="d"/><path d="M59.9 58.9v.5l.4.4c.2 0 .4-.4.5-.9l.1-.4-.3-.2h-.4l-.2.5" class="a"/><path d="M30.9 47.2h2.5v5.2h3v-5.1h7.5v5.1h3v-5.1h2.5V33.9h-2.9l-.1-.2c-.3-.5-.8-.8-1.4-.8-.6 0-1 .3-1.4.9h-2.1c-.2-.5-.8-.9-1.4-.9-.7 0-1.2.3-1.5.9h-2.2c-.4-.7-.8-.9-1.4-.9-.7 0-1.1.3-1.4.9h-2.7v13.4"/><path class="c" d="M32 35h16.4v11.2H32z"/><path d="M33.7 37.6c-.4 0-.8.4-.8.8s.4.8.8.8.8-.3.8-.8c-.1-.4-.4-.8-.8-.8" class="a"/><path d="M33.7 37.7l-.7.7.7.7.7-.7-.7-.7m0 1.6c-.5 0-.9-.4-.9-.9s.4-.9.9-.9.9.4.9.9-.4.9-.9.9"/><path d="M46.5 37.6c-.4 0-.8.4-.8.8s.3.8.8.8c.4 0 .8-.3.8-.8 0-.4-.3-.8-.8-.8" class="a"/><path d="M46.5 37.7l-.7.7.7.7.7-.7-.7-.7m0 1.6c-.5 0-.9-.4-.9-.9s.4-.9.9-.9.9.4.9.9-.4.9-.9.9"/><path d="M33.7 43.7c-.4 0-.8.4-.8.8s.4.8.8.8.8-.3.8-.8c-.1-.4-.4-.8-.8-.8" class="a"/><path d="M33.7 43.8l-.7.7c0 .4.3.7.7.7l.6-.7-.6-.7m0 1.6c-.5 0-.9-.4-.9-.9s.4-.9.9-.9.9.4.9.9-.4.9-.9.9"/><path d="M46.5 43.7c-.4 0-.8.4-.8.8s.3.8.8.8c.4 0 .8-.3.8-.8 0-.4-.3-.8-.8-.8" class="a"/><path d="M46.5 43.8l-.7.7.7.7.7-.7-.7-.7m0 1.6c-.5 0-.9-.4-.9-.9s.4-.9.9-.9.9.4.9.9-.4.9-.9.9"/><path d="M36.1 41.3c1.1 1.3 2.4 2 4 2 1.5 0 2.6-.5 3.8-2-1.2-1.3-2.4-1.8-3.9-1.8s-2.9.7-3.9 1.8" class="a"/><path d="M36.9 41.3c1.1-.8 2-1.2 3.1-1.2s2 .3 3.1 1.2c-1 1-1.8 1.3-3.1 1.3-1.1.1-2.2-.4-3.1-1.3"/><path d="M38.2 41.1c.7.4 1.2.6 1.8.6.7 0 1.3-.2 1.9-.6-.6-.3-1.2-.4-1.9-.4-.6-.1-1.2.1-1.8.4" class="a"/><path d="M31.7 35.6h16.8v.6H31.7z"/><path d="M31.7 36.2h16.9v-.6H31.7v.6zm.1-.6h16.8v.5H31.8v-.5z" fill="#1D201D"/><path d="M34.3 34.9v1.6c0 .4.3.7.7.7.5 0 .7-.2.7-.7v-1.6c0-.6-.3-1-.7-1l-.3.1-.2.1-.2.2v.3m5.1 1.6v.3c0 .4.3.7.7.7.5 0 .7-.2.7-.7v-1.6c0-.6-.2-1-.6-1-.5 0-.8.4-.8 1m4.9 0v1.6c0 .4.3.7.7.7.5 0 .7-.2.7-.7v-1.6c0-.6-.2-1-.6-1l-.3.1-.2.1-.2.2-.1.3M34 48.5h1.5v2H34zm0 2.4h1.5v.6H34zm10.4-2.4h1.5v2h-1.5zm0 2.4h1.5v.6h-1.5z" class="a"/></svg>