<svg xmlns="http://www.w3.org/2000/svg" xmlns:xlink="http://www.w3.org/1999/xlink" viewBox="0 0 275 44"><style>.a{fill:#2B2C2C}.b{fill:#FFDE26}.c{fill:#262626}.d{fill:#2B2C2C}.e{fill:#FFF}.f{fill:#E53E33}.g{fill:#2B2C2C}.h{fill:#FFDE26}.i{fill:#FFDE26}.j{fill:#FFDE26}.k{fill:#2F2F27}.l{}.m{}.n{}.o{}.p{}.q{}.r{}.s{}.t{}.u{}.v{}.w{}.x{}.y{}.z{}.a1{}.b1{}.c1{}.d1{}.e1{}.f1{}.g1{}.h1{}.i1{}.j1{}.k1{}.l1{}.m1{}.n1{}.o1{}.p1{}.q1{}.r1{}.s1{}.t1{}.u1{}.v1{}.w1{}.x1{}.y1{}.z1{}</style><defs><path id="a" d="M0 0h274.581v44.023H0z"/></defs><clipPath id="b"><use overflow="visible" xlink:href="#a"/></clipPath><path class="a" d="M163.03 11.098l1.171-3.173c.439-1.246.682-1.954.83-2.515h.047c.149.537.368 1.269.808 2.491l1.123 3.197h-3.979zm3.15-9.741h-2.345l-6.226 16.162h3.051l1.514-4.029h5.737l1.563 4.029h3.175L166.18 1.357zM194.869 10.512c.023-1.392.804-2.612 2.244-2.612 1.54 0 2.198 1.293 2.222 2.612h-4.466zm2.295-4.833c-3.298 0-5.201 2.612-5.201 6.078 0 3.125 1.709 6.005 5.909 6.005 1.415 0 2.854-.317 4.075-1.074l-.877-2.001c-.831.463-1.759.78-2.907.78-1.927 0-3.196-1.145-3.271-2.93h7.397v-.682c.001-3.833-1.878-6.176-5.125-6.176M245.266 10.512c.024-1.392.806-2.612 2.245-2.612 1.54 0 2.198 1.293 2.225 2.612h-4.47zm2.296-4.833c-3.298 0-5.201 2.612-5.201 6.078 0 3.125 1.708 6.005 5.907 6.005 1.417 0 2.857-.317 4.077-1.074l-.877-2.001c-.831.463-1.759.78-2.907.78-1.927 0-3.196-1.145-3.271-2.93h7.397v-.682c.001-3.833-1.879-6.176-5.125-6.176M270.822 2.431l-2.905.857V5.97h-2.075v2.272h2.075v6.42c0 1.93 1.248 3.1 3.295 3.1 1.148 0 2.54-.341 3.37-.901l-.877-2.004c-.439.293-1.076.562-1.76.562-.756 0-1.123-.393-1.123-1.467v-5.71h.122v-.005h.94c1.307 0 1.678-.686 1.855-1.015l.572-1.142.023-.043-.023-.046h-3.368V5.97h-.122V2.431zM186.796 5.679c-2.709 0-4.37 1.44-4.37 3.49 0 3.857 5.42 3.125 5.42 5.08 0 .877-.854 1.218-2.025 1.218-1.174 0-2.271-.389-3.148-.95l-.132.307-.516 1.963c.956.527 2.336.975 3.989.975 2.491 0 4.688-1.047 4.688-3.588 0-4.027-5.419-3.319-5.419-5.15 0-.756.658-1.05 1.634-1.05 1.002 0 1.9.218 2.729.522l.544-2.068v-.186c-.951-.345-2.099-.563-3.394-.563M208.053 5.679c-2.711 0-4.37 1.44-4.37 3.49 0 3.857 5.42 3.125 5.42 5.08 0 .877-.854 1.218-2.028 1.218-1.119 0-2.17-.357-3.028-.879l-.6 2.288c.945.486 2.266.886 3.823.886 2.491 0 4.689-1.047 4.689-3.588 0-4.027-5.419-3.319-5.419-5.15 0-.756.658-1.05 1.635-1.05.994 0 1.886.215 2.71.516l.56-2.134v-.114c-.951-.345-2.099-.563-3.392-.563M217.696 5.679c-2.709 0-4.37 1.44-4.37 3.49 0 3.857 5.42 3.125 5.42 5.08 0 .877-.854 1.218-2.027 1.218-1.135 0-2.199-.366-3.064-.901l-.6 2.294c.945.493 2.282.902 3.858.902 2.491 0 4.689-1.047 4.689-3.588 0-4.027-5.419-3.319-5.419-5.15 0-.756.658-1.05 1.634-1.05.987 0 1.876.211 2.696.51l.575-2.198v-.044c-.95-.345-2.097-.563-3.392-.563M177.203 5.679c-2.709 0-4.369 1.44-4.369 3.49 0 3.857 5.42 3.125 5.42 5.08 0 .877-.854 1.218-2.025 1.218-1.172 0-2.271-.389-3.149-.95l-.007.013 1.112 2.942c.669.179 1.418.29 2.239.29 2.489 0 4.685-1.047 4.685-3.588 0-4.027-5.418-3.319-5.418-5.15 0-.756.659-1.05 1.634-1.05.992 0 1.885.212 2.711.514l.563-2.151v-.095c-.953-.345-2.101-.563-3.396-.563M223.166 5.474l-.056.031v12.013h2.903V9.366c.854-.684 1.832-1.148 2.76-1.148 1.489 0 1.708 1.122 1.708 2.466v6.834h2.93V9.804l-.022-.438c.83-.684 1.806-1.148 2.733-1.148 1.489 0 1.755 1.075 1.755 2.44v6.86h2.908V9.853c0-3.051-1.806-4.174-3.833-4.174-1.294 0-2.76.609-4.151 1.783-.561-1.149-1.661-1.783-3.075-1.783s-2.734.684-3.88 1.586h-.111c-.296-.615-.758-.871-1.034-1.021l-1.479-.739-.056-.031zM254.351 5.474l-.057.031v12.013h2.903v-8.08c.855-.707 1.88-1.22 2.833-1.22 1.49 0 1.782 1.148 1.782 2.562v6.738h2.931V9.879c0-3.297-1.882-4.2-3.711-4.2-1.438 0-2.732.634-3.955 1.586h-.158c-.296-.615-.759-.871-1.034-1.021l-1.479-.739-.055-.031zM53.608 1.173c-5.176 0-8.498 3.712-8.498 8.374 0 4.713 2.859 8.107 8.131 8.107 1.572 0 3.235-.284 4.969-1.204-.424-.66-.669-1.465-.677-2.384-1.145.66-2.366 1.121-3.952 1.121-3.295 0-5.345-2.343-5.345-5.712 0-3.151 1.879-5.836 5.445-5.836 1.561 0 2.904.392 4.15 1.05V1.955c-1.003-.441-2.466-.782-4.223-.782M94.611 15.112a4.47 4.47 0 01-1.342-.195V8.229c.364-.147.877-.368 1.757-.368 1.902 0 3.025 1.416 3.025 3.444 0 2.269-1.342 3.807-3.44 3.807M93.269 0h-2.907v16.722c.976.514 2.296.807 3.784.807 3.932 0 6.909-2.345 6.909-6.395 0-3.663-2.465-5.69-5.543-5.69-.901 0-1.585.148-2.243.343V0zM123.036 15.236c-2.1 0-3.54-1.292-3.54-3.539 0-2.369 1.489-3.736 3.515-3.736.588 0 .953.073 1.392.171v6.91c-.391.146-.975.194-1.367.194M127.332.125h-2.929v5.59a8.623 8.623 0 00-1.563-.146c-3.662 0-6.322 2.514-6.322 6.177 0 3.809 2.808 5.908 6.568 5.908 1.415 0 3.098-.293 4.246-.856V.125zM143.25 10.402c.023-1.392.805-2.613 2.244-2.613 1.54 0 2.198 1.293 2.225 2.613h-4.469zm2.296-4.834c-3.299 0-5.202 2.613-5.202 6.079 0 3.125 1.709 6.007 5.91 6.007 1.415 0 2.854-.32 4.074-1.076l-.878-1.999c-.83.462-1.758.779-2.905.779-1.928 0-3.197-1.146-3.271-2.93h7.398v-.683c0-3.832-1.881-6.177-5.126-6.177M63.315 15.357c-1.05 0-1.709-.585-1.709-1.587 0-.585.221-1.049.706-1.317.392-.221.929-.344 1.686-.367l1.494-.047v2.42l.007.091c-.408.322-1.163.807-2.184.807m.512-9.787c-1.61 0-3.101.388-4.468 1.146l.954 1.881c.828-.441 1.878-.807 3.027-.807 1.342 0 2.221.585 2.221 1.928v.367l-1.978.072c-1.173.051-2.173.246-2.979.661-1.194.611-1.953 1.586-1.953 3.149 0 2.221 1.636 3.686 3.834 3.686 1.441 0 2.49-.585 3.32-1.342h.243c.274.335.588.512.798.627l1.521.76.058.031.06-.031v-6.801h-.018V9.768c0-2.785-1.539-4.198-4.64-4.198M70.659 5.316l-.055.03V17.36h2.903V9.206c.854-.681 1.832-1.145 2.761-1.145 1.488 0 1.707 1.122 1.707 2.465v6.835h2.93V9.646l-.023-.438c.83-.684 1.807-1.148 2.735-1.148 1.489 0 1.755 1.073 1.755 2.44v6.86h2.907V9.695c0-3.053-1.806-4.174-3.831-4.174-1.297 0-2.76.609-4.152 1.781-.562-1.148-1.662-1.781-3.077-1.781s-2.734.684-3.88 1.585h-.108c-.298-.614-.76-.873-1.034-1.02l-1.48-.74-.058-.03zM108.721 5.626c-1.316 0-2.47.709-3.173 1.531l-.32-1.297h-2.464v11.549h2.906V9.253c.896-1.097 1.779-1.422 2.511-1.422 1.05 0 1.786.666 1.786.666V5.844a3.695 3.695 0 00-1.246-.218M114.639 5.862h-2.929V17.41h2.929V5.862zM113.174.49c-1.025 0-1.782.782-1.782 1.757 0 .977.757 1.733 1.782 1.733 1.026 0 1.808-.781 1.808-1.733 0-1.001-.782-1.757-1.808-1.757M134.212 20.702c-1.928 0-3.149-.707-3.149-1.856 0-.756.563-1.243.928-1.512 1.562.61 5.151.269 5.151 1.929.001.854-1.172 1.439-2.93 1.439m-.195-9.082c-1.294 0-2.026-1-2.026-2.148 0-1.39.854-2.149 2.001-2.149 1.294 0 2.075 1.027 2.075 2.174 0 1.391-.879 2.123-2.05 2.123m6.222-6.498H135.711v.004h-1.766c-3.149 0-4.712 2.125-4.712 4.248 0 1.54.709 2.881 1.927 3.589-.951.66-1.392 1.488-1.392 2.172 0 .613.269 1.148.759 1.442-1.195.513-2.076 1.513-2.076 2.784 0 2.001 1.975 3.392 5.37 3.392 4.005 0 6.104-1.71 6.104-3.809 0-4.32-7.592-2.393-7.592-4.467 0-.245.073-.488.292-.854.392.122.879.196 1.417.196 2.806 0 4.784-1.684 4.784-4.275 0-.902-.283-1.756-.814-2.449H138.346v-.016c.95-.08 1.247-.61 1.396-.876l.498-1.003.021-.04-.022-.038zM45.811 25.241h2.165v16.037h-2.165zM51.092 29.767h1.801l.268 1.411c1.24-1.022 2.529-1.702 3.991-1.702 1.824 0 3.503 1.071 3.503 4.089v7.713h-2.139V34.27c0-1.631-.39-2.896-1.973-2.896-1.17 0-2.288.681-3.309 1.557v8.347h-2.142V29.767zM64.16 38.698v-7.205h-1.971v-1.728h1.971v-2.627l2.142-.68v3.307h3.455l-.585 1.728h-2.87v6.79c0 1.022.414 1.462 1.167 1.462.732 0 1.387-.317 1.85-.61l.705 1.486c-.754.535-1.897.898-3.041.898-1.777.001-2.823-1.019-2.823-2.821M78.371 34.39c-.026-1.605-.802-3.211-2.532-3.211-1.655 0-2.65 1.459-2.676 3.211h5.208zm-5.208 1.607c.026 2.167 1.364 3.771 3.627 3.771 1.119 0 2.068-.34 2.87-.777l.657 1.483c-1.071.682-2.458 1.046-3.773 1.046-3.817 0-5.571-2.798-5.571-6.083 0-3.504 1.921-5.961 4.866-5.961 3.019 0 4.748 2.311 4.748 5.984v.537h-7.424zM82.605 29.767h1.801l.244 1.411c1.217-1.29 2.165-1.702 3.235-1.702.488 0 1.024.121 1.365.341l-.755 1.897a2.344 2.344 0 00-1.119-.291c-.804 0-1.56.436-2.628 1.481v8.373h-2.143v-11.51zM90.271 29.767h1.801l.268 1.411c1.24-1.022 2.532-1.702 3.991-1.702 1.827 0 3.503 1.071 3.503 4.089v7.713h-2.139V34.27c0-1.631-.39-2.896-1.973-2.896-1.169 0-2.287.681-3.308 1.557v8.347h-2.143V29.767zM106.869 35.753c-.927.024-1.534.171-2.02.414-.61.341-.901.925-.901 1.63 0 1.194.777 1.971 1.994 1.971 1.34 0 2.288-.803 2.8-1.313V35.68l-1.873.073zm2.018 4.284c-.876.827-1.994 1.483-3.431 1.483-2.115 0-3.697-1.387-3.697-3.602 0-1.532.777-2.555 1.946-3.114.803-.389 1.728-.536 2.898-.585l2.139-.072v-.607c0-1.632-.999-2.338-2.385-2.338-1.315 0-2.311.414-3.14.901l-.754-1.484a8.087 8.087 0 014.161-1.143c2.605 0 4.26 1.239 4.26 4.013v4.187c0 1.973.072 3.02.219 3.603h-1.852l-.364-1.242zM114.363 38.698v-7.205h-1.971v-1.728h1.971v-2.627l2.143-.68v3.307h3.454l-.583 1.728h-2.871v6.79c0 1.022.413 1.462 1.166 1.462.733 0 1.39-.317 1.852-.61l.703 1.486c-.754.535-1.897.898-3.041.898-1.777.001-2.823-1.019-2.823-2.821M121.932 29.768h2.142v11.511h-2.142V29.768zm-.294-3.747c0-.757.56-1.364 1.364-1.364.826 0 1.41.584 1.41 1.364 0 .777-.607 1.387-1.41 1.387-.804-.001-1.364-.61-1.364-1.387M134.998 35.51c0-2.48-1.216-4.259-3.235-4.259-2.045 0-3.262 1.778-3.262 4.259 0 2.458 1.217 4.233 3.237 4.233 2.044 0 3.26-1.775 3.26-4.233m-8.711 0c0-3.406 2.167-6.035 5.476-6.035 3.261 0 5.451 2.629 5.451 6.035 0 3.384-2.167 6.011-5.476 6.011-3.284 0-5.451-2.627-5.451-6.011M139.185 29.767h1.801l.268 1.411c1.243-1.022 2.532-1.702 3.991-1.702 1.825 0 3.503 1.071 3.503 4.089v7.713h-2.139V34.27c0-1.631-.391-2.896-1.973-2.896-1.17 0-2.287.681-3.309 1.557v8.347h-2.143V29.767zM155.782 35.753c-.927.024-1.534.171-2.021.414-.609.341-.9.925-.9 1.63 0 1.194.776 1.971 1.994 1.971 1.34 0 2.287-.803 2.8-1.313V35.68l-1.873.073zm2.018 4.284c-.876.827-1.994 1.483-3.431 1.483-2.115 0-3.697-1.387-3.697-3.602 0-1.532.776-2.555 1.946-3.114.801-.389 1.728-.536 2.895-.585l2.143-.072v-.607c0-1.632-.999-2.338-2.386-2.338-1.314 0-2.313.414-3.14.901l-.754-1.484a8.087 8.087 0 014.161-1.143c2.604 0 4.26 1.239 4.26 4.013v4.187c0 1.973.072 3.02.219 3.603h-1.852l-.364-1.242zM162.449 24.048h2.143v14.357c0 .876.268 1.145.85 1.145.196 0 .536-.072.732-.147l.438 1.681a5.012 5.012 0 01-1.777.342c-1.605 0-2.385-.877-2.385-2.412V24.048zM173.619 25.24h8.104l-.659 1.849h-5.28v5.088h5.233v1.848h-5.233v5.404h6.035v1.848h-8.2zM191.602 39.429v-7.885c-.534-.169-.948-.268-1.679-.268-2.214 0-3.991 1.558-3.991 4.332 0 2.531 1.534 4.087 4.017 4.087.533 0 1.217-.072 1.653-.266m-7.884-3.773c0-3.7 2.651-6.181 6.06-6.181.607 0 1.243.048 1.824.219v-5.646h2.143v16.67c-.9.488-2.386.803-3.844.803-3.433 0-6.183-2.019-6.183-5.865M196.762 39.331c-.219-.632-.316-1.242-.316-2.189v-7.373h2.143v6.984c0 .729.047 1.239.218 1.702.291.804.901 1.192 1.85 1.192 1.217 0 2.359-.705 2.944-1.436v-8.443h2.143v7.957c0 1.922.071 2.969.243 3.553h-1.899l-.365-1.29c-.974.877-2.236 1.533-3.748 1.533-1.122 0-2.606-.487-3.213-2.19M207.932 35.632c0-3.431 2.336-6.156 5.841-6.156 1.24 0 2.264.339 2.944.729v1.875a4.844 4.844 0 00-2.775-.828c-2.359 0-3.795 1.825-3.795 4.258 0 2.702 1.436 4.235 3.647 4.235 1.169 0 1.997-.391 2.751-.805l.634 1.51c-.851.584-2.216 1.071-3.674 1.071-3.602 0-5.573-2.628-5.573-5.889M223.067 35.753c-.925.024-1.535.171-2.019.414-.609.341-.9.925-.9 1.63 0 1.194.777 1.971 1.994 1.971 1.34 0 2.288-.803 2.799-1.313V35.68l-1.874.073zm2.02 4.284c-.876.827-1.993 1.483-3.431 1.483-2.117 0-3.698-1.387-3.698-3.602 0-1.532.777-2.555 1.947-3.114.801-.389 1.728-.536 2.896-.585l2.141-.072v-.607c0-1.632-.998-2.338-2.385-2.338-1.314 0-2.313.414-3.14.901l-.754-1.484a8.071 8.071 0 014.161-1.143c2.604 0 4.26 1.239 4.26 4.013v4.187c0 1.973.072 3.02.22 3.603h-1.853l-.364-1.242zM230.563 38.698v-7.205h-1.972v-1.728h1.972v-2.627l2.142-.68v3.307h3.455l-.583 1.728h-2.872v6.79c0 1.022.414 1.462 1.167 1.462.732 0 1.387-.317 1.85-.61l.705 1.486c-.754.535-1.896.898-3.041.898-1.777.001-2.823-1.019-2.823-2.821M238.133 29.768h2.142v11.511h-2.142V29.768zm-.294-3.747c0-.757.56-1.364 1.363-1.364.826 0 1.412.584 1.412 1.364 0 .777-.608 1.387-1.412 1.387s-1.363-.61-1.363-1.387M251.198 35.51c0-2.48-1.216-4.259-3.234-4.259-2.046 0-3.263 1.778-3.263 4.259 0 2.458 1.217 4.233 3.237 4.233 2.044 0 3.26-1.775 3.26-4.233m-8.711 0c0-3.406 2.167-6.035 5.477-6.035 3.261 0 5.45 2.629 5.45 6.035 0 3.384-2.167 6.011-5.476 6.011-3.284 0-5.451-2.627-5.451-6.011M255.385 29.767h1.801l.269 1.411c1.239-1.022 2.531-1.702 3.99-1.702 1.825 0 3.503 1.071 3.503 4.089v7.713h-2.139V34.27c0-1.631-.39-2.896-1.973-2.896-1.169 0-2.287.681-3.309 1.557v8.347h-2.143V29.767z" clip-path="url(#b)"/><path class="b" d="M36.105 24.038c-.079 1.975-.368 3.768-.863 5.335-.475 1.519-1.155 2.865-2.024 4.011-1.613 2.135-3.578 3.202-4.884 3.912-.112.063-.891.458-4.625 2.318l.041.085h.096V24.138h12.353v-.188H23.656v15.903l.137-.067c3.736-1.863 4.511-2.256 4.629-2.321 1.31-.711 3.305-1.795 4.946-3.965.882-1.165 1.573-2.533 2.057-4.07.495-1.586.79-3.393.868-5.384l-.188-.008zM14.112 24.043v15.656h.093l.043-.085a529.341 529.341 0 01-4.624-2.315c-1.307-.713-3.269-1.78-4.885-3.913-.867-1.146-1.549-2.495-2.024-4.012-.494-1.568-.784-3.36-.862-5.335l-.093.004v.094h12.445v-.188H1.658l.005.099c.081 1.988.372 3.796.869 5.384.482 1.536 1.175 2.904 2.055 4.069 1.642 2.17 3.638 3.252 4.948 3.965.119.063.895.46 4.628 2.318l.138.069v-15.81h-.189z" clip-path="url(#b)"/><path class="c" d="M36.224 1.73v-.093H23.656v12.955h12.662V1.637h-.094v.093h-.094v12.672H23.847V1.828h12.377V1.73h-.094zM14.206 1.73v-.093H1.638v12.955h12.661V1.637h-.093v.093h-.095v12.672H1.829V1.828h12.377V1.73h-.095z" clip-path="url(#b)"/><path class="d" d="M18.978 44.023l-.377-.201c-.562-.28-9.328-4.636-9.85-4.919C5.912 37.357 0 34.146 0 22.892V0h37.956v22.891c0 11.255-5.912 14.466-8.751 16.012-.522.284-9.342 4.666-9.85 4.919l-.377.201z" clip-path="url(#b)"/><path class="e" d="M22.84 15.408V.82h-7.723v14.588H.821v7.483l.002.239h14.294v18.04c2.06 1.028 3.858 1.921 3.858 1.921l.003.001.001-.001s1.8-.893 3.861-1.921V23.13h14.294V15.408H22.84z" clip-path="url(#b)"/><path class="f" d="M.822.817h14.296v14.588H.822zM22.841.82h14.296v14.588H22.841zM15.118 23.131H.824c.081 10.46 5.446 13.487 8.321 15.051.293.159 3.345 1.683 5.973 2.991V23.131zM22.84 23.131v18.042c2.628-1.309 5.68-2.832 5.973-2.991 2.875-1.563 8.24-4.591 8.321-15.051H22.84z" clip-path="url(#b)"/><path class="g" d="M27.75 19.383l.294-.35-.372-.442-.373.442.295.35c.006.177.016 1.723-.895 2.278 0 0 .304.057.711-.021 0 0 .071.403.262.864.191-.461.263-.864.263-.864.409.078.711.021.711.021-.912-.556-.9-2.101-.896-2.278M30.077 16.755l.295-.35-.372-.442-.372.442.296.35c.004.177.016 1.724-.896 2.278 0 0 .303.057.71-.021 0 0 .071.401.262.861.192-.46.265-.861.265-.861.407.078.71.021.71.021-.912-.554-.902-2.101-.898-2.278M32.406 19.383l.295-.35-.373-.442-.372.442.294.35c.006.177.018 1.723-.895 2.278 0 0 .304.057.713-.021 0 0 .069.403.26.864.191-.461.265-.864.265-.864.407.078.71.021.71.021-.913-.556-.902-2.101-.897-2.278M34.734 16.755l.294-.35-.372-.442-.373.442.295.35c.006.177.016 1.724-.895 2.278 0 0 .304.057.71-.021 0 0 .072.401.263.861.191-.46.263-.861.263-.861.409.078.711.021.711.021-.911-.554-.901-2.101-.896-2.278M25.422 16.755l.295-.35-.373-.442-.373.442.295.35c.006.177.018 1.724-.895 2.278 0 0 .304.057.713-.021 0 0 .069.401.26.861.192-.46.265-.861.265-.861.407.078.71.021.71.021-.912-.554-.902-2.101-.897-2.278M5.706 19.383l.294-.35-.373-.442-.372.442.294.35c.006.177.018 1.723-.895 2.278 0 0 .304.057.713-.021 0 0 .069.403.26.864.191-.461.265-.864.265-.864.407.078.711.021.711.021-.913-.556-.902-2.101-.897-2.278M8.034 16.755l.295-.35-.373-.442-.373.442.295.35c.006.177.018 1.724-.897 2.278 0 0 .306.057.715-.021 0 0 .069.401.26.861.192-.46.263-.861.263-.861.409.078.711.021.711.021-.91-.554-.901-2.101-.896-2.278M10.363 19.383l.294-.35-.373-.442-.372.442.295.35c.004.177.016 1.723-.895 2.278 0 0 .302.057.71-.021 0 0 .072.403.262.864.192-.461.264-.864.264-.864.406.078.711.021.711.021-.913-.556-.901-2.101-.896-2.278M12.69 16.755l.295-.35-.373-.442-.372.442.296.35c.004.177.016 1.724-.896 2.278 0 0 .303.057.71-.021 0 0 .071.401.262.861.192-.46.265-.861.265-.861.407.078.71.021.71.021-.912-.554-.901-2.101-.897-2.278M3.379 16.755l.294-.35-.373-.442-.372.442.293.35c.005.177.018 1.724-.893 2.278 0 0 .302.057.711-.021 0 0 .071.401.261.861.192-.46.264-.861.264-.861.406.078.711.021.711.021-.912-.554-.901-2.101-.896-2.278M19.075 25.308l.294-.35-.372-.442-.373.442.295.35c.004.178.016 1.724-.897 2.276 0 0 .304.058.712-.02 0 0 .072.402.263.861.191-.459.263-.861.263-.861.406.077.711.02.711.02-.912-.553-.901-2.099-.896-2.276M19.075 33.213l.294-.353-.372-.439-.373.439.295.353c.004.176.016 1.724-.897 2.277 0 0 .304.058.712-.021 0 0 .072.402.263.864.191-.462.263-.864.263-.864.406.079.711.021.711.021-.912-.553-.901-2.101-.896-2.277M21.232 29.26l.295-.35-.373-.442-.372.442.296.35c.004.177.016 1.725-.896 2.278 0 0 .303.057.712-.021 0 0 .069.403.26.863.192-.46.265-.863.265-.863.407.078.71.021.71.021-.912-.554-.901-2.101-.897-2.278M16.892 29.26l.294-.35-.372-.442-.373.442.295.35c.004.177.016 1.725-.895 2.278 0 0 .304.057.713-.021 0 0 .069.403.26.863.191-.46.263-.863.263-.863.406.078.711.021.711.021-.912-.554-.9-2.101-.896-2.278M21.232 37.164l.295-.35-.373-.442-.372.442.296.35c.004.177.016 1.724-.896 2.278 0 0 .303.057.712-.021 0 0 .069.403.26.864.192-.461.265-.864.265-.864.407.078.71.021.71.021-.912-.554-.901-2.101-.897-2.278M16.892 37.164l.294-.35-.372-.442-.373.442.295.35c.004.177.016 1.724-.895 2.278 0 0 .304.057.713-.021 0 0 .069.403.26.864.191-.461.263-.864.263-.864.406.078.711.021.711.021-.912-.554-.9-2.101-.896-2.278M19.075 7.306l.294-.352-.372-.44-.373.44.295.352c.004.176.016 1.723-.897 2.276 0 0 .304.059.712-.02 0 0 .072.403.263.865.191-.462.263-.865.263-.865.406.079.711.02.711.02-.912-.553-.901-2.1-.896-2.276M21.232 3.353l.295-.35-.373-.442-.372.442.296.35c.004.177.016 1.723-.896 2.278 0 0 .303.057.712-.022 0 0 .069.403.26.864.192-.461.265-.864.265-.864.407.079.71.022.71.022-.912-.555-.901-2.101-.897-2.278M16.892 3.353l.294-.35-.372-.442-.373.442.295.35c.004.177.016 1.723-.895 2.278 0 0 .304.057.713-.022 0 0 .069.403.26.864.191-.461.263-.864.263-.864.406.079.711.022.711.022-.912-.555-.9-2.101-.896-2.278M21.232 11.258l.295-.349-.373-.443-.372.443.296.349c.004.179.016 1.723-.896 2.278 0 0 .303.057.712-.022 0 0 .069.404.26.865.192-.461.265-.865.265-.865.407.079.71.022.71.022-.912-.555-.901-2.099-.897-2.278M16.892 11.258l.294-.349-.372-.443-.373.443.295.349c.004.179.016 1.723-.895 2.278 0 0 .304.057.713-.022 0 0 .069.404.26.865.191-.461.263-.865.263-.865.406.079.711.022.711.022-.912-.555-.9-2.099-.896-2.278M12.029 8.023l.048.181.097.388c.152.691.281.875.618.875.19 0 .352-.108.401-.269l.073-.242.115-.09c.132 0 .195.139.196.443.004.085.033.284.088.591.032.183.048.359.048.53l-.073.378c.043.239.073.56.073.744 0 .3-.055.578-.145.725.051.2.062.28.062.456l-.038.402c-.052.292-.066.366-.066.419l.031.163.035.145-.035.062-.243-.098-.266-.144-.279-.218c-.236.211-.306.244-.923.413l-.264.11-.163.082c-.104 0-.153-.167-.153-.515 0-.255.027-.494.073-.674a1.405 1.405 0 00-.433-.109l-.186.025-.043.004-.067-.117.073-.262.123-.291.29-.35.317-.184.433-.084c.261-.051.417-.188.417-.368 0-.175-.119-.29-.379-.383l-.521-.181-.473-.231c-.289-.172-.337-.193-.408-.193l-.161.213c0 .218.139.368.338.368l.122-.024.125-.036.086.091-.004.054-.025.205c-.022.177-.135.391-.388.728l-.108.145a1.658 1.658 0 01-.655.957l-.134.097-.097.168-.239.294-.305.277-.243.217-.121.207-.097.06c-.107 0-.206-.11-.265-.3l-.176-.184-.213.035-.169.025h-.439c-.216 0-.524.057-.665.124l-.125.037-.08-.076-.027-.096c0-.221.16-.637.364-.971.134-.209.176-.256.329-.385-.05-.207-.181-.367-.338-.414l-.209-.06-.048-.058c0-.064.101-.149.279-.244.238-.125.477-.195.668-.195.201 0 .395.081.616.257.329.255.419.302.58.302.258 0 .504-.236.504-.486 0-.167-.089-.344-.318-.642-.339-.438-.442-.665-.442-.985 0-.198.062-.452.138-.566l.121-.18.04-.118-.219-.14c-.192 0-.56.138-.852.316l-.245.259.053.094.133.084.026.05-.051.095-.241.316a4.173 4.173 0 01-.511.533l-.119.121-.097.181c-.087.164-.317.398-.534.547l-.169.131-.096.171-.158.254-.29.377-.341.339c-.104.103-.197.304-.339.749-.086.268-.164.426-.209.426l-.094-.074c-.239-.274-.446-.437-.555-.437l-.134.061-.328.123-.45.085c-.336.063-.474.137-.663.364l-.109.083-.064-.141.013-.113.062-.326c.063-.352.145-.61.243-.788l.203-.376.059-.196c0-.281-.286-.535-.638-.569l-.124-.079.231-.282c.243-.185.56-.315.763-.315.124 0 .312.049.547.143l.265.11.27.062c.282 0 .556-.258.893-.836.152-.264.218-.452.218-.622 0-.306-.145-.494-.385-.494a.785.785 0 00-.524.229l-.184.375.003.136.004.032-.108.173c-.115 0-.281-.164-.756-.74-.356-.43-.435-.612-.447-1.042-.412-.522-.514-.745-.514-1.119l.014-.248c-.282-.344-.362-.53-.362-.843l.086-.321c-.145-.212-.192-.308-.231-.472l-.059-.256-.195-.45-.124-.23c0-.142.098-.196.523-.3l-.023-.269.034-.29.085-.449a2.16 2.16 0 00.053-.388c0-.083-.012-.142-.087-.385l-.109-.279-.074-.168.083-.066c.118 0 .437.191.766.462.694.576.839.807.933 1.505l.035.243c.336.242.509.54.509.857 0 .251-.09.543-.241.776l-.243.378-.108.398c0 .231.064.44.228.728.187.327.346.461.54.461.319 0 .6-.557.6-1.189v-.084l-.004-.219.028-.399c.022-.189.034-.307.036-.35l.013-.294.004-.192-.125-.23-.265-.292c-.389-.419-.599-.816-.599-1.112 0-.365.266-.643.618-.643l.258.047v-.083c0-.534.109-.928.256-.928l.058.018.218.194.265.168.076.073.157-.339.17-.231.12-.178.06-.112.101-.09.106.176c.028.083.047.105.255.29l.144.16.098.24.036.098.242-.221.183-.106.132-.063.061.074.097.182c.129.226.171.332.171.438l-.001.119v.145c.396.125.547.332.547.759 0 .308-.161.662-.474 1.037-.21.246-.233.295-.233.467 0 .896.623 1.418 1.722 1.433l.811.012c.522.01.834.061 1.321.218.578.186.744.231.911.231l.156-.05.072-.106c0-.169-.297-.308-1.273-.583-1.998-.565-2.845-1.371-2.845-2.694 0-1.023.851-1.815 1.948-1.815.357 0 .901.092 1.211.207l.499.182.26.05c.168 0 .255-.14.261-.425l.138-.206c.14 0 .354.173.552.447.2.278.329.589.329.795 0 .276-.13.467-.424.636-.273.413-.607.603-1.057.603-.351 0-.849-.196-1.671-.664-.286-.162-.431-.217-.584-.217-.214 0-.352.124-.352.312 0 .176.134.29.489.414.524.183.653.255.861.474.617.104.885.212 1.273.507 1.062.337 1.72 1.061 1.72 1.895 0 .807-.547 1.389-1.307 1.389-.181 0-.294-.011-.573-.073" clip-path="url(#b)"/><path class="h" d="M13.23 13.33l-.046-.291.008-.097.038-.193.013-.158-.087-.363-.145-.194-.121-.232-.024-.1.086-.091.158.071.116.042c.072 0 .113-.117.113-.324 0-.233-.022-.362-.071-.421l-.184-.206-.159-.131-.063-.108.102-.087.266.06.055.011.069-.098-.004-.047-.035-.254-.072-.266-.092-.1-.031.004-.302.059-.049.004c-.397 0-.816-.336-.944-.755l-.241-.787c-.077-.244-.26-.475-.585-.741l-.24-.13-.22-.026-.067-.06.153-.073.399.035c.145.015.365.07.655.171.364.124.607.177.812.177.606 0 .97-.328.97-.876 0-.376-.199-.797-.496-1.071l-.401-.268-.062.064.012.154v.016l-.08.106-.213-.242c-.228-.476-.59-.758-.968-.758l-.107.063.06.176.098.217.037.11-.049.03-.209-.114-.179-.196-.158-.242c-.125-.193-.229-.281-.499-.424l-.288-.157-.152-.05-.064.064.047.131.123.243-.063.072c-.093 0-.286-.191-.461-.448a1.239 1.239 0 01-.219-.683c0-.519.38-.907.896-.907.262 0 .6.114.911.304l.566.352c.2.124.492.219.666.219l.355-.062.144-.059.057-.069-.032-.053-.072-.023-.268-.051-.327-.119a6.005 6.005 0 01-.606-.304c-.199-.131-.332-.208-.399-.229l-.16-.117.055-.053.127.047.448.17.524.182c.258.089.635.169.806.169a.4.4 0 00.399-.401l-.213-.53-.082-.062-.075.098.012.098.02.142-.241.282-.19-.039-.788-.254C11.044 2.067 10.736 2 10.407 2c-.941.003-1.661.65-1.661 1.5 0 .963.676 1.587 2.35 2.159 1.647.567 1.879.703 1.879 1.128 0 .244-.247.461-.523.461l-.29-.025c-.055-.012-.33-.076-.823-.194a6.15 6.15 0 00-1.507-.169c-1.189 0-1.85.207-2.419.764l-.354.16-.082-.004-.17-.011h-.022l-.341.218c-.129.204-.197.315-.204.327l-.139.072c-.109 0-.174-.081-.3-.374l-.252-.366-.243-.218-.06-.093.045-.112.173-.316.101-.168c.076 0 .098.074.103.352l.098.326.134.29.109.063c.125 0 .285-.295.327-.607.035-.261.06-.341.116-.341l.053.026.11.217.156.183.147.086.012.001c.099 0 .135-.063.156-.295l.014-.12-.026-.17-.016-.117.07-.125.093.05.119.121.242.119.161-.106-.113-.279-.083-.159c-.098-.182-.173-.255-.265-.255l-.125.012-.143.061-.077.028-.058-.048c0-.109.072-.28.207-.496.097-.152.164-.479.196-.949.041-.633.124-1.044.212-1.044l.084.186-.007.166-.004.118.055.203c.103 0 .226-.156.324-.404l.061-.249-.012-.056-.243-.447-.241-.073-.085-.055V2.655l-.024-.145-.049-.122-.06-.131c-.266.142-.392.237-.486.362l-.193.173-.062-.063.037-.196.01-.068c0-.26-.16-.517-.421-.683l-.075.099L6.02 2l-.146.171-.12.241-.025.14v.017l.001.045-.056.129-.031-.015-.084-.122-.134-.143-.204-.134-.111-.086-.045.109-.062.195-.014.193-.011.205.001.037-.09.146-.142-.059-.173-.051c-.19 0-.311.13-.311.336 0 .241.07.472.197.634l.153.206.129.071.03-.253-.037-.206-.006-.092.07-.127c.07 0 .112.077.157.28l.094.45.098.569.143.482c.098.23.168.369.207.426l.149.233-.051.057-.11-.036-.145-.049-.093-.015c-.196 0-.237.17-.237.978 0 .493.104 1.162.235 1.487l.252.64.061.302c0 .883-1.172 2.268-2.46 2.909-.479.238-.631.466-.663.992l-.014.159c.195-.101.274-.133.413-.168.36-.097.429-.141.483-.317l.05-.158c.017-.058.048-.08.326-.23l.193-.157.146-.157.045.04-.011.043-.119.346-.015.086c0 .256.14.466.404.598.042-.279.073-.375.159-.508l.217-.339c.08-.127.112-.278.112-.52l-.028-.377-.008-.096.086-.096.081.036.047.228.116.086c.118 0 .27-.153.43-.424l.088-.32-.017-.165-.036-.181-.003-.037.107-.131.053.021.072.281.156.158.305-.304c.072-.144.111-.309.111-.495 0-.26.026-.333.12-.333l.062.03.048.156.083.098.279-.304.037-.114-.109-.165-.136-.279c0-.151.027-.233.136-.422l.158-.293c.152-.301.209-.377.262-.377l.09.107-.028.1-.047.143.089.089.215-.073c.032-.021.146-.063.338-.135l.402-.144.243-.038.214.026.28.048.208-.201-.195-.369-.062-.112.015-.047.065-.048c.08 0 .27.205.443.475 1.042 1.643 1.418 2.04 2.122 2.254.711.216.897.382.897.807 0 .229-.119.501-.378.863-.526.737-.654 1.035-.654 1.523l.002.089.133-.059.192-.086.302-.061.172-.247-.002-.031-.036-.267-.001-.035.11-.256.062-.026.098.074.192.412c.079.168.172.25.424.364M3.46 4.545l-.144.243-.023.23a1.977 1.977 0 00-.029.292l.119.301.264-.315.052-.284-.052-.272-.187-.195z" clip-path="url(#b)"/><path class="i" d="M2.458 2.776l.171.169c.275.277.41.736.41 1.387 0 .143-.006.241-.036.625a6.618 6.618 0 00-.025.501c0 1.501.49 2.637 1.136 2.637.203 0 .336-.096.525-.388l.111-.087.058.101.026.267.022.228.025.255.036.231.001.03-.084.114-.221.038-.337.132c-.184.111-.294.195-.315.242l-.132.28-.078.06c-.07 0-.184-.122-.313-.34-.111-.184-.177-.334-.177-.395l.105-.052h.025l.157.011.096-.011.11-.011.075-.087-.051-.073-.544-.229a.862.862 0 01-.413-.4c-.149-.286-.219-.458-.219-.546l.099-.123.085.027.154.049.087-.076-.096-.132c-.456-.33-.717-.709-.717-1.038l.069-.134.09.009.158.025h.006l.106-.093-.102-.113-.194-.109-.167-.17a8.958 8.958 0 01-.207-.388l-.17-.327-.109-.205-.074-.097.377-.098c.167 0 .272.106.39.4.072.186.153.311.197.311l.034-.142-.051-.361-.036-.268-.025-.17-.146-.073-.107-.12-.098-.278.038-.219c.121-.462.156-.642.156-.792l-.002-.104.111.12zM3.912 11.512l-.352-.085-.229-.096c-.197-.084-.344-.121-.464-.121-.185 0-.333.06-.503.205l.107.085.24.171.233.181.199.074c.237 0 .443-.111.769-.414M8.576 13.718l.243-.314c.337-.292.496-.508.496-.68v-.266l.11-.206.072.036.061.145.102.055.176-.14.123-.169.087-.236-.026-.14-.086-.193-.049-.191.108-.125.087.036.095.121.093.042.126-.104.098-.192.037-.108-.111-.109-.155-.074c-.211-.097-.366-.428-.366-.776l.023-.132.086-.205.036-.195-.122-.375-.156-.256c-.071-.191-.107-.245-.169-.245l-.062.017-.084.047-.134.072-.158.196-.167.083-.198.445c0 .316.034.403.45 1.119.163.278.249.517.249.693 0 .496-.448.852-1.338 1.064l-.556.132c-.412.099-.653.381-.741.864.17-.089.237-.103.538-.103l.176.003h.031l.285-.158.4-.337.193-.085.157-.086.05-.015.067.051-.117.207c-.138.155-.193.285-.193.467l.133.32z" clip-path="url(#b)"/><path class="j" d="M7.05 11.84l.364.326.247.171.177-.026.109-.022c.199-.039.267-.07.267-.119l-.061-.099-.132-.122-.134-.121-.399-.137c-.145 0-.231.031-.438.149M10.976 12.494l.073-.012.11-.013.108.013.051.003c.27 0 .528-.229.528-.468l-.212-.129c-.324 0-.532.187-.658.606" clip-path="url(#b)"/><path class="k" d="M6.457 4.122l.13.205c.053 0 .113-.132.238-.346.17-.293.336-.577.336-.729l-.062-.091-.012.004-.134.119c-.096.089-.174.129-.411.22l-.188.204.018.098.059.171.026.145zM5.718 3.491l.203.109.088.118-.013.076-.009.257c-.01.216-.175.215-.239.215l-.117-.133-.265-.301c-.082-.094-.154-.306-.182-.547v-.032l.072-.09.134.063.328.265zM6.189 4.764h-.066l-.139-.012-.146-.086-.173-.048-.181.151c0 .102.048.266.16.54l.157.387c.14.341.274.486.451.486.16 0 .181-.156.287-.424.244-.61.376-.699.376-.915l-.163-.188-.116-.027-.192.124-.255.012z" clip-path="url(#b)"/><path fill="#FFDE26" d="M6.372 5.067l-.195.036h-.155l-.064.037-.021.059.058.29.048.256.185.194.203-.23.026-.267.024-.277-.036-.075-.061-.026z" clip-path="url(#b)"/><path fill="#2B2C2C" d="M34.639 8.023l.047.181.099.388c.151.691.28.875.617.875.19 0 .352-.108.401-.269l.073-.242.114-.088c.13 0 .201.145.212.441.004.112.027.308.071.591.034.203.05.391.05.562l-.073.346.023.147c.043.237.053.333.053.444 0 .52-.026.673-.149.878.051.196.065.29.065.431 0 .093-.014.223-.04.427l-.05.364.014.218.047.145-.047.062-.243-.098-.265-.144-.279-.218c-.236.206-.269.226-.548.303-.399.111-.548.161-.628.22l-.168.082c-.094 0-.159-.183-.159-.449 0-.387.023-.588.085-.74-.238-.079-.356-.109-.441-.109l-.18.025-.052.005-.055-.115c0-.119.085-.356.195-.556.151-.27.403-.495.593-.534l.435-.084c.261-.051.415-.188.415-.368 0-.175-.114-.289-.377-.383l-.508-.181-.487-.231-.263-.159-.135-.034-.172.208c0 .204.159.373.352.373l.12-.024.114-.036.095.129c0 .214-.137.588-.28.768l-.145.181-.109.145c-.04.314-.348.76-.654.957l-.133.097-.098.168-.24.294-.304.277-.243.217-.124.207-.092.065c-.109 0-.208-.115-.27-.305l-.175-.184-.213.035-.167.025h-.425c-.23 0-.536.054-.679.124l-.123.037-.097-.186c0-.383.296-.965.681-1.342-.056-.223-.176-.373-.326-.414l-.221-.06-.033-.058c0-.078.084-.154.276-.244.347-.164.445-.195.638-.195.221 0 .406.075.634.257.329.253.419.302.578.302.257 0 .506-.235.506-.486 0-.167-.093-.352-.321-.642-.322-.412-.435-.681-.435-1.03 0-.235.046-.363.255-.701l.05-.13-.233-.128c-.129 0-.29.047-.507.148-.364.168-.584.322-.584.417l.061.104.123.084.026.05-.052.095c-.021.027-.106.132-.242.316-.169.224-.33.395-.507.533l-.124.121-.095.181c-.082.152-.321.403-.523.547l-.169.131-.109.171a3.66 3.66 0 01-.447.631l-.326.339c-.095.096-.227.377-.352.749-.101.294-.164.426-.211.426l-.092-.074c-.234-.269-.446-.437-.551-.437l-.14.061-.329.123-.435.085c-.364.07-.509.148-.678.364l-.098.083-.072-.149.01-.105a6.39 6.39 0 00.062-.326c.062-.347.151-.631.243-.788l.22-.376.059-.196c0-.28-.26-.507-.656-.569l-.12-.088.242-.273c.259-.195.54-.315.743-.315.134 0 .314.047.553.143l.267.11.27.062c.281 0 .557-.258.892-.836.154-.264.22-.45.22-.625 0-.306-.142-.491-.383-.491a.728.728 0 00-.515.229l-.199.388.005.123.007.064-.106.141c-.091 0-.199-.089-.407-.338l-.341-.402c-.368-.43-.445-.602-.461-1.042-.409-.522-.513-.815-.513-1.119l.016-.248c-.294-.355-.353-.492-.353-.838l.074-.326c-.142-.212-.188-.308-.23-.472l-.06-.256-.192-.45-.124-.224c0-.125.123-.207.427-.281l.096-.025-.023-.269.034-.29.085-.449.05-.396c0-.106-.016-.188-.074-.377l-.121-.279-.072-.16.095-.073.122.038c.41.223.856.579 1.175.934.274.303.363.558.425 1.237.372.276.509.525.509.919 0 .232-.077.459-.241.714a8.587 8.587 0 00-.243.378l-.111.409c0 .22.066.425.232.717.18.319.343.461.535.461.318 0 .605-.551.605-1.154l-.002-.119v-.329l.04-.288.019-.35.025-.294.01-.163c0-.118-.026-.153-.395-.552-.412-.44-.608-.812-.608-1.158 0-.324.279-.597.616-.597l.258.047v-.145l.01-.255.073-.314c.058-.251.083-.297.173-.297l.058.018.218.194.268.168.07.073.158-.339.171-.231.119-.178.074-.112.102-.09.093.176.109.157.157.133c.128.109.212.269.264.498l.244-.221.196-.106.127-.062.054.073.097.182c.155.251.17.287.17.457l-.003.1v.145c.395.109.548.319.548.756 0 .325-.149.663-.462 1.04-.209.246-.241.324-.241.51 0 .857.642 1.375 1.732 1.39l.798.012c.523.01.843.061 1.322.218.559.182.744.231.914.231l.225-.151c0-.174-.293-.313-1.27-.588-1.998-.564-2.848-1.372-2.848-2.694 0-1.024.852-1.814 1.957-1.814.35 0 .896.093 1.204.206l.497.182.259.05c.17 0 .236-.108.262-.425l.149-.206c.126 0 .373.198.554.447.183.254.313.593.313.812 0 .259-.133.456-.423.619-.271.413-.605.603-1.055.603-.345 0-.932-.231-1.671-.664-.29-.17-.418-.217-.579-.217-.219 0-.358.12-.358.312 0 .178.129.287.487.414.578.204.699.269.862.474.618.104.884.212 1.272.507 1.107.355 1.722 1.038 1.722 1.912 0 .797-.54 1.37-1.292 1.37-.199 0-.302-.009-.587-.071" clip-path="url(#b)"/><path fill="#FFDE26" d="M35.838 13.33l-.038-.223.014-.165c.029-.227.04-.333.04-.471l-.089-.243-.145-.194-.132-.33.065-.094.054.012.111.06.12.042c.074 0 .11-.114.11-.341 0-.316-.062-.466-.243-.61l-.169-.131-.048-.101.087-.095.143.022.135.039.048.011.061-.102-.004-.043-.033-.254c-.041-.266-.083-.365-.161-.365l-.023.003-.315.059-.053.004c-.377 0-.824-.357-.938-.755l-.231-.787c-.069-.238-.276-.497-.583-.741l-.253-.13-.217-.026-.069-.059.132-.075c.309 0 .635.063 1.073.207.397.131.615.177.811.177.606 0 .972-.316.972-.839a1.64 1.64 0 00-.232-.806c-.115-.179-.317-.368-.568-.531l-.098-.039-.059.062.011.156v.016l-.078.106-.214-.242c-.221-.472-.583-.758-.952-.758l-.128.078.064.161.108.217.03.105-.054.035-.205-.114-.182-.195-.159-.243a1.142 1.142 0 00-.484-.424l-.303-.157-.156-.05-.055.055.054.14.111.24-.059.075c-.086 0-.238-.153-.453-.448a1.175 1.175 0 01-.231-.683c0-.506.394-.907.902-.907.256 0 .584.11.905.304l.581.352c.207.127.49.219.663.219.099 0 .128-.007.343-.062l.158-.059.043-.072-.103-.073c-.271-.023-.83-.241-1.202-.474-.213-.137-.346-.212-.399-.229l-.165-.129.051-.03.071.014.527.192.511.182c.249.089.636.169.813.169.231 0 .391-.158.391-.388l-.077-.337-.212-.268-.075.129.005.067.017.154-.228.27-.199-.039-.788-.254c-.683-.22-.948-.279-1.285-.279-.952 0-1.672.642-1.672 1.5 0 .964.665 1.57 2.365 2.159 1.648.573 1.865.703 1.865 1.138 0 .25-.236.451-.528.451l-.284-.025c-.071-.012-.345-.08-.823-.194a5.992 5.992 0 00-1.507-.169c-1.201 0-1.78.183-2.408.764l-.365.16-.082-.004-.192-.011-.341.218-.195.327-.138.072c-.125 0-.192-.082-.311-.374l-.24-.366-.256-.218-.06-.089.06-.116.108-.168.062-.148.011-.109.086-.059c.08 0 .095.054.098.352l.097.326.133.29.11.063c.126 0 .283-.295.325-.607.036-.257.061-.341.116-.341.049 0 .073.031.174.243l.145.183.147.086h.012c.1 0 .136-.062.156-.294l.014-.12-.026-.17-.015-.117.072-.125.091.05.121.121.244.119.167-.118-.12-.267-.084-.159c-.111-.204-.16-.255-.253-.255l-.125.012-.158.061-.094.028-.038-.048c0-.111.07-.281.204-.496.084-.129.155-.455.207-.949l.062-.57c.036-.35.074-.474.146-.474l.049.026.036.181v.145l.039.321.203-.162.12-.242.061-.319c0-.281-.117-.401-.498-.506l-.072-.039-.013-.109v-.204l-.024-.145-.047-.122-.062-.131-.097.059c-.247.154-.307.201-.389.303l-.192.172-.062-.051.05-.207.005-.036c0-.265-.149-.52-.417-.715l-.085.099-.086.119-.145.171-.134.359v.039l.002.041-.059.13-.027-.012-.095-.122-.122-.143-.219-.134-.109-.086c-.117.254-.122.282-.122.608v.101l-.094.176-.146-.059-.18-.051c-.176 0-.305.15-.305.353 0 .223.047.374.195.617l.275.284.039-.26-.039-.206-.006-.092.073-.127c.068 0 .11.077.154.28l.096.45.096.569.147.482c.097.23.165.369.205.426l.151.233-.053.057-.111-.036-.145-.049-.087-.015c-.202 0-.244.163-.244.969 0 .501.104 1.169.235 1.496l.254.64.062.302c0 .887-1.199 2.302-2.461 2.909-.492.236-.637.482-.679 1.151a2.33 2.33 0 01.425-.168c.357-.102.434-.15.485-.317l.048-.158c.02-.067.066-.1.314-.23l.194-.157.145-.156.052.065-.003.017-.134.346-.014.086c0 .254.143.466.403.598l.035-.144c.043-.186.085-.307.121-.364l.232-.339c.082-.123.098-.203.098-.516l-.014-.381-.006-.096.082-.098.082.038.038.228.115.086c.118 0 .269-.149.429-.424l.087-.289-.04-.377-.003-.073.091-.095.057.021.087.281.16.158c.185 0 .377-.384.399-.789.009-.255.041-.344.119-.344l.061.031.049.156.085.098.168-.147.11-.157.035-.129-.109-.15-.134-.254c0-.176.076-.364.294-.74.196-.341.223-.379.27-.379l.082.104-.027.105-.047.145.094.087.22-.073.328-.135c.224-.078.364-.129.411-.144l.248-.038.212.026.28.048.196-.192-.076-.208-.108-.17-.074-.108.015-.051.067-.048c.094 0 .283.196.451.475.948 1.55 1.411 2.04 2.108 2.254.729.218.9.373.9.807 0 .229-.121.507-.379.863-.483.674-.654 1.066-.654 1.512l.002.1.131-.059.195-.086.301-.061.172-.255-.002-.023-.021-.267-.003-.042.163-.274.094.073.193.412c.078.168.171.25.423.364M25.904 5.018l-.012.195-.004.117c0 .197.031.283.105.283l.261-.317.064-.326-.064-.231-.178-.194c-.104 0-.151.135-.172.473" clip-path="url(#b)"/><path fill="#FFDE26" d="M25.066 2.776l.172.169c.246.249.415.752.415 1.242l-.006.202-.036.568-.012.475c0 1.586.461 2.665 1.139 2.665.172 0 .379-.156.522-.39l.098-.087.059.101.026.267.021.228.039.255.034.237c0 .123-.023.138-.316.176l-.337.132c-.188.121-.298.205-.315.242l-.132.28-.078.06c-.071 0-.165-.108-.299-.34-.124-.213-.178-.337-.178-.393l.105-.055.026.001.145.011.109-.011.098-.011.072-.092-.05-.068-.545-.229c-.133-.055-.272-.196-.4-.4-.138-.223-.22-.417-.22-.528l.094-.141.09.027.142.049.063-.025.039-.058-.097-.125c-.455-.321-.729-.711-.729-1.034l.067-.135.09.006.172.025.109-.093-.109-.113c-.303-.15-.377-.238-.57-.667-.15-.328-.226-.466-.354-.629l.378-.098c.168 0 .27.106.386.4.074.186.156.311.202.311l.032-.14-.051-.363-.036-.268-.026-.17-.133-.073-.205-.398.024-.219.074-.279c.052-.196.083-.403.083-.513v-.104l.109.12zM26.52 11.512c-.254-.043-.291-.054-.579-.181-.201-.088-.327-.121-.456-.121-.191 0-.341.059-.516.205l.11.085.242.171.232.181.204.074c.237 0 .437-.109.763-.414M31.186 13.718l.243-.314c.337-.292.496-.508.496-.68v-.266l.106-.206.076.036.059.145.104.054c.087 0 .149-.062.298-.308l.088-.24-.029-.136-.085-.193-.048-.191.106-.125.09.036.095.121.064.042.154-.104.098-.192.036-.11-.098-.107-.169-.074c-.199-.086-.364-.427-.364-.751l.036-.157.074-.205.036-.202-.12-.368-.147-.256c-.071-.18-.111-.239-.173-.239l-.153.058-.122.072-.171.196-.168.083c-.102.051-.198.273-.198.454 0 .261.056.402.452 1.11.168.299.246.521.246.688 0 .496-.502.902-1.326 1.069-.983.203-1.195.363-1.306.996.169-.089.237-.103.538-.103l.176.003h.028l.288-.158.4-.337.192-.085.158-.086.05-.015.066.053-.116.205-.184.399.124.388z" clip-path="url(#b)"/><path fill="#FFDE26" d="M29.659 11.84l.363.326.248.171.176-.026.109-.022c.205-.041.27-.07.27-.124l-.053-.094-.145-.122-.131-.121-.383-.134c-.152 0-.273.039-.454.146M33.583 12.494l.073-.012.12-.013.098.013.066.003.238-.053.23-.279.048-.136-.208-.129c-.331 0-.536.186-.665.606" clip-path="url(#b)"/><path fill="#2F2F27" d="M29.064 4.122l.133.205c.052 0 .132-.174.259-.386.171-.294.313-.537.313-.689l-.062-.091-.012.004-.134.122-.399.217-.201.204.018.098.104.211-.019.105zM28 3.225l-.136-.059-.072.085.001.034.047.206c.061.193.13.309.16.338l.185.307.261.167h.009l.062-.048.042-.24.057-.221.007-.052-.091-.141-.206-.11L28 3.225zM28.799 4.764h-.063l-.141-.012-.148-.086-.17-.048-.179.184c0 .092.055.268.156.507l.157.387c.133.34.273.486.454.486.157 0 .284-.13.383-.388l.134-.546.223-.359-.289-.274-.068.013-.184.124-.265.012z" clip-path="url(#b)"/><path fill="#FFDE26" d="M28.981 5.067l-.192.036h-.148l-.063.037-.035.059.061.29.048.256.154.194.235-.23.025-.267.024-.277-.036-.075-.064-.026z" clip-path="url(#b)"/><path fill="#2B2C2C" d="M12.259 30.898c.107.266.144.399.158.569l.025.509c.018.511.188.764.507.764l.267-.085.135-.132.052-.016.13.156-.014.197c-.008.088.006.277.051.559l.035.487c0 .262-.021.356-.108.59.083.238.133.509.133.733 0 .263-.046.441-.148.587.049.211.061.294.061.414 0 .119-.016.274-.046.46-.044.253-.063.449-.05.58v.031l-.071.114-.149-.096-.176-.129c-.083 0-.11.043-.233.408-.041.111-.139.262-.293.448l-.219.351-.071.254-.074.062-.015.001c-.201 0-.427-.429-.663-1.237-.066-.228-.149-.33-.273-.33l-.21.138-.071.17-.066.05c-.095 0-.244-.179-.335-.4a1.538 1.538 0 01-.12-.559c0-.379.282-.662 1.127-1.14.366-.207.509-.469.509-.942 0-.377-.114-.594-.437-.838-.257-.194-.404-.268-.539-.268l-.206.173.224.239c.184.068.268.131.268.217 0 .075-.081.24-.207.438-.139.21-.198.271-.388.401-.058.333-.214.545-.58.787a1.344 1.344 0 01-.244.447l-.256.33-.181.375c-.027.184-.045.217-.116.217-.095 0-.294-.17-.49-.421l-.157-.403c-.126.1-.165.113-.412.146l-.328.086c-.187.098-.246.124-.279.124l-.073-.112-.013-.268c0-.367.145-.793.364-1.079-.211-.186-.422-.295-.594-.316l-.09-.042.115-.226.217-.24c.172-.147.47-.256.704-.256.157 0 .389.059.691.173l.29.06.206-.239c0-.223-.106-.565-.351-1.119-.165-.373-.24-.625-.24-.8 0-.42.196-.856.446-.98l-.267-.074-.375.122-.278.259.097.104.107.179c0 .301-.244.7-.592.962-.077.425-.273.682-.655.857-.049.232-.082.299-.266.561-.316.443-.391.583-.449.835l-.099.185-.278-.21-.192-.232c-.051-.078-.078-.155-.132-.386l-.174.028-.179-.002-.121-.004c-.264 0-.548.06-.693.148l-.103.047c-.078 0-.141-.164-.141-.368 0-.435.121-.798.404-1.193l-.232-.219-.096-.086-.132-.073-.072-.079c0-.063.176-.233.388-.368.232-.15.415-.22.585-.22.201 0 .305.054.552.269l.374.22.172-.111.063-.182c0-.231-.276-.621-.582-.823a1.345 1.345 0 00-.724-.231c-.337 0-.627.169-.756.438l-.131.276-.118.102c-.077 0-.119-.035-.393-.355l-.315-.362-.196-.313-.059-.16-.12-.098c-.243-.171-.421-.514-.522-1.005l-.036-.158c-.296-.364-.474-.814-.474-1.203l.028-.165c-.175-.176-.194-.217-.329-.68-.096-.33-.157-.471-.28-.63l-.048-.093.279-.148.245-.029.242.017-.018-.331c0-.195.018-.321.066-.553l.036-.254-.025-.211-.037-.18-.025-.105.072-.059.16.053c.211.104.384.209.521.315.417.328.746.83.746 1.144l-.006.093-.029.179.087.196.133.183.196.476c0 .112-.025.163-.22.445-.146.213-.208.368-.208.542 0 .218.087.496.244.766.141.253.309.391.465.391.271 0 .389-.239.431-.888.021-.337.056-.64.098-.919l.013-.166-.121-.236-.364-.423c-.346-.404-.452-.612-.452-.902 0-.335.22-.567.537-.567l.145.016v-.095L4.819 25c.076-.262.172-.462.225-.462l.117.062.218.084.24.121c.061-.21.104-.305.195-.424.156-.202.334-.363.396-.363l.196.145.231.243.136.23.047.108.145-.084.195-.109.229-.109.125-.063c.041 0 .065.074.155.475.061.274.071.333.086.535.386.054.568.275.568.689 0 .392-.192.779-.606 1.223l-.138.292c0 1.072.37 1.408 1.713 1.552.825.087 1.069.137 2.059.435.521.156.82.223 1.014.223.228 0 .357-.084.357-.231 0-.225-.163-.296-1.125-.501-2.247-.473-3.128-1.238-3.128-2.72 0-1.057.788-1.848 1.844-1.848.463 0 .879.141 1.535.521.609.354.737.413.877.413.162 0 .228-.106.228-.366l.156-.253.374.254c.202.238.28.358.28.689 0 .438-.234.724-.691.851l-.107.121c-.25.281-.469.376-.866.376-.345 0-.778-.14-1.077-.353l-.579-.411c-.252-.177-.434-.254-.611-.254-.248 0-.395.148-.395.397 0 .243.161.441.426.522l.544.169c.195.062.286.098.522.218l.27-.024c.341 0 .705.091 1.023.256l.221.098.303.084c.688.194 1.248.963 1.248 1.714 0 .858-.555 1.387-1.453 1.387l-.282-.014z" clip-path="url(#b)"/><path fill="#FFDE26" d="M12.054 38.097l.073-.146.17-.183a.898.898 0 00.222-.625l-.066-.393-.051-.214.118-.148.093.06.18.204.29.183.013-.167.012-.199c0-.291-.107-.615-.266-.82l-.142-.24.068-.088.049.026.209.123.112-.308c0-.229-.096-.492-.249-.678l-.145-.179-.025-.071.106-.087.15.061.093.035c.094 0 .13-.133.13-.493l-.004-.148-.013-.22c-.015-.255-.037-.302-.147-.302h-.096c-.59 0-.867-.374-1.018-1.382-.11-.729-.382-1.244-.716-1.356-.199-.066-.269-.109-.269-.164l.115-.067.228.063c.485.193.89.29 1.246.29.58 0 1.038-.427 1.038-.969 0-.415-.197-.836-.552-1.177l-.302-.181-.023-.002-.063.019.027.176.047.124.012.05-.058.046-.088-.049-.218-.328c-.172-.26-.553-.476-.83-.476l-.164.116.073.142.11.192-.012.049-.048.049-.013.001c-.057 0-.086-.027-.35-.327-.216-.247-.657-.486-.894-.486l-.088.038-.025.047.084.134.137.186-.068.046c-.071 0-.226-.1-.516-.328-.451-.354-.654-.69-.654-1.079 0-.468.335-.837.762-.837.253 0 .582.122.812.294l.595.446c.271.207.604.315.953.315l.209-.047.084-.081-.109-.055a1.418 1.418 0 01-.509-.216l-.605-.461a4.106 4.106 0 00-.472-.328c-.319-.169-.382-.206-.382-.244l.068-.035.106.026.317.134c.102.042.27.142.508.302.648.432.977.573 1.359.573.364 0 .63-.257.63-.607l-.05-.21-.062-.12-.071-.062-.035.049-.037.255-.037.086-.086.119-.223.086c-.186 0-.396-.099-.964-.46-.575-.367-1.092-.558-1.501-.558-.873 0-1.575.703-1.575 1.572 0 1.213.738 1.764 3.065 2.269.883.192 1.272.453 1.272.843 0 .362-.289.586-.749.586l-.329-.022a45.668 45.668 0 01-1.248-.341 6.25 6.25 0 00-1.618-.225c-.913 0-1.527.271-1.944.855l-.129.109-.101-.048-.171-.134-.433-.165-.258.104-.124.083c-.067 0-.192-.15-.286-.349a1.944 1.944 0 01-.207-.826l.089-.204.093.097.098.351c.052.199.164.352.247.352l.173-.145.101-.17c.075-.221.094-.254.153-.254.071 0 .107.044.154.266l.081.207.145.217.125.064c.106 0 .204-.18.204-.376l-.001-.05-.017-.227.064-.113.083.058.207.17.174.063.116-.062.052-.094-.172-.222c-.068-.068-.152-.233-.243-.481l-.113-.161-.08.026-.159.061-.108.048-.041.007-.094-.081.243-.29.159-.326c.008-.203.044-.365.086-.365l.035-.422c.018-.212.107-.616.181-.837l.035-.072.078.191-.003.062-.008.122.072.234.167-.211.109-.28.047-.225c0-.237-.14-.407-.336-.407l-.087.016-.075.024-.129-.152.009-.174-.011-.243-.049-.254-.012-.122-.109.06-.135.109-.192.156-.159.134-.089.036c-.093 0-.103-.023-.103-.212v-.047c0-.152-.066-.272-.315-.564l-.061-.072-.049.084-.133.219-.134.34-.023.217-.055.11-.115-.084c-.184-.213-.243-.25-.521-.352l-.023.083-.073.255-.013.23v.176l-.066.104h-.007l-.072-.061-.147-.038c-.225 0-.37.121-.37.317 0 .144.051.253.274.591l.258.271.056-.174-.024-.145-.034-.186.058-.104c.109 0 .222.313.269.749l.047.45.146.483c.11.228.22.381.314.448l.188.207-.064.073-.246-.086-.101-.012c-.242 0-.323.138-.323.556 0 .504.339 1.229.717 1.531l.556.45c.283.225.497.604.497.87 0 .356-.389.704-1.053.947l-.402.142c-.307.114-.435.315-.556.899l.333-.063.055.001.179.004.282-.232v-.109l.109-.111.168-.083.134-.109.067-.026.067.073-.025.109-.064.418c0 .297.047.456.198.674l.035-.157.208-.327c.181-.257.317-.568.317-.737l-.003-.053-.036-.278.059-.133.083-.035.124.121.086.107.18-.243.06-.255-.036-.156-.038-.138.051-.079.061-.023.071.023.109.073.098.038.17-.134.171-.348-.086-.103c-.24-.168-.4-.426-.4-.648l.035-.175.122-.327.098-.255.035-.015.066.094-.027.14-.054.229.128.135.202-.047c.367-.16.657-.245.833-.245l.44.157.113.051.07-.051.023-.06-.073-.157-.086-.172.068-.06c.189 0 .486.599.77 1.553.222.752.286.829 1.005 1.237.607.343.839.684.839 1.236 0 .545-.15 1.242-.464 2.154-.1.287-.143.483-.143.646 0 .129.027.252.12.578l.083.28.098.182z" clip-path="url(#b)"/><path fill="#FFDE26" d="M9.244 36.4c.071-.166.094-.207.231-.414.193-.295.265-.451.265-.593v-.194c0-.182.032-.266.104-.266l.063.037.062.098.087.048.136-.103.142-.431-.013-.136-.011-.134.1-.106.106.109.092.097.101-.073.097-.145.074-.11.016-.061-.09-.108c-.226-.161-.321-.411-.339-.861-.013-.341-.032-.563-.059-.666-.006-.023-.08-.197-.22-.52l-.146-.438-.152-.144c-.326 0-.578.28-.578.653 0 .22.092.563.26.983.232.587.294.797.294 1.005 0 .444-.178.64-.793.859-.694.25-1.019.606-1.14 1.249l.124-.05.168-.06.194-.049.328-.229.05-.169.071-.087.11-.048.109-.048.023.048-.049.158-.024.281c0 .27.051.426.207.618M2.736 25.191l.026.137-.05.313-.022.245c0 .217.039.449.108.64l.076.276-.005.051-.046.087-.123-.077-.447-.183-.207.026.059.131.184.45.255.388.263.183.074.071.038.079-.05.045-.242.009-.067.05c0 .044.036.165.103.362l.121.353.21.193.215.158.102.137-.042.069-.119.012-.064.099c0 .09.085.253.245.471.188.254.32.34.532.34h.182l.14.11-.116.108-.218.146.06.133.098.131.23.187.176-.111.393-.267c.419-.106.51-.15.51-.25l-.051-.139c-.133-.24-.18-.395-.18-.592l-.095-.257-.101.097-.421.257c-.419 0-.927-.657-1.175-1.529a2.413 2.413 0 01-.089-.654c0-.227.031-.482.089-.74.082-.354.125-.553.133-.594l.016-.163c0-.301-.278-.686-.708-.988" clip-path="url(#b)"/><path fill="#FFDE26" d="M3.609 26.876c-.089.171-.172.549-.172.791l.106.251.066-.059.133-.243.086-.149.086-.179-.305-.412zM4.942 32.342l.06.06.096.098c.237.246.272.269.387.269l.449-.124.085-.083-.121-.134-.133-.121-.322-.178c-.137-.001-.281.06-.501.213M7.753 34.533l.243.121.193.122.194.024.146-.024.254-.097.243-.087.11-.091L9 34.437l-.18-.061c-.299-.119-.344-.137-.45-.137a.807.807 0 00-.617.294M10.818 36.97c.082-.193.138-.228.414-.24.307-.02.605-.578.605-.952l-.029-.072-.081.042-.181.107-.353.158c-.234.103-.441.417-.441.663l.066.294z" clip-path="url(#b)"/><path fill="#2F2F27" d="M5.585 26.44l.12.169.263.19.076-.103.047-.186.014-.201c0-.16-.07-.221-.4-.307l-.17-.061-.145-.074-.049.033.012.055.06.182.172.303zM7.158 25.87l-.193.134-.242.073-.23.17.023.238.133.302.016-.002.058-.065.157-.282.266-.29.084-.204.006-.019-.054-.059zM6.564 27.265l.192-.097.094-.027.165.198c0 .138-.11.324-.259.592-.157.29-.279.485-.403.485-.173 0-.42-.277-.659-.739l-.093-.338.194-.234.139.039.109.074.309.094.212-.047z" clip-path="url(#b)"/><path fill="#FFDE26" d="M6.287 27.555l-.135-.025-.02-.001-.115.132.222.524.09.051c.078 0 .134-.149.175-.391l.036-.182.005-.033-.084-.102-.028.002" clip-path="url(#b)"/><path fill="#2B2C2C" d="M33.343 30.718c.211.279.506.461.751.461l.326-.049.161-.024.083.077-.063.229-.071.215-.048.256-.12.218-.172.156-.048.051v.161c0 .297-.086.464-.326.626l-.085.06-.025.098a3.127 3.127 0 01-.12.423l-.231.338a2.163 2.163 0 00-.302.5l-.167.154-.259-.325-.062.074-.143.097-.233.154-.192.146-.133.136-.069.035c-.062 0-.125-.104-.184-.303l-.121-.4-.051-.39c0-.201.015-.272.086-.434-.242.023-.31.04-.435.085l-.106.023-.064-.073.046-.181.16-.412c.122-.317.516-.61.828-.61l.311.065.184.037.252-.229-.097-.16c-.021-.01-.166-.052-.436-.133-.205-.06-.305-.137-.533-.4-.167-.192-.23-.247-.292-.247l-.072.086.012.161.004.076c0 .335-.099.654-.342 1.099l-.34.617c-.164.293-.23.516-.23.74 0 .243.104.46.241.497l.184.047.059.039.036.069-.062.112-.217.276c-.209.273-.339.372-.593.45-.147.355-.386.561-.811.701l-.051.085c-.145.255-.464.485-.667.485h-.047c-.027.221-.186.452-.425.617l-.276.206-.061.109-.174.17c-.128 0-.235-.119-.312-.351l-.107.071-.231.157a2.657 2.657 0 01-.425.122c-.298.068-.553.195-.619.302l-.108.182-.049.023-.155-.191a2.942 2.942 0 01-.113-.68c0-.431.143-.711.584-1.151v-.104c0-.668.51-1.12 1.261-1.12l.121.001.411.026.039.001c.223 0 .431-.085.654-.271.294-.242.381-.389.381-.662 0-.087-.024-.185-.117-.488-.059-.2-.09-.388-.09-.568 0-.501.365-1.122.866-1.465l.225-.275-.035-.051-.155.094-.29.181-.195.099-.214.085-.102.106.028.11.023.09-.061.142-.17.278c-.166.272-.286.39-.497.484-.136.398-.332.6-.617.642-.228.463-.429.62-.835.666-.056.181-.154.325-.365.56l-.156.192-.149.182-.275-.182-.11-.146-.108-.192-.119-.092-.077.006-.266.036-.485.279-.145.218-.057.036c-.111 0-.176-.239-.176-.637 0-.347.052-.577.174-.745l.337-.472.073-.184-.061-.157-.192-.146-.255-.033-.063-.039.038-.082.302-.267c.302-.185.499-.258.701-.258.204 0 .427.075.634.208l.35.231.171.051c.162 0 .284-.098.4-.318.11-.212.158-.383.158-.561 0-.457-.325-.783-.779-.783-.208 0-.424.08-.627.242l-.121.132-.098.218-.087.085c-.062 0-.197-.176-.314-.4l-.168-.436a1.982 1.982 0 01-.102-.604l.019-.329a1.197 1.197 0 01-.222-.749c0-.11.016-.196.085-.425-.1-.17-.132-.298-.132-.54l.012-.153.037-.167.024-.146c-.117-.154-.151-.256-.267-.788-.064-.302-.105-.433-.156-.51l-.038-.071c0-.071.168-.135.363-.135l.172.014-.053-.247.089-.481c.062-.185.076-.237.076-.297l-.055-.37-.094-.24-.032-.125.059-.033c.238 0 .693.256 1.049.593.357.335.471.606.471 1.104l-.021.265c.33.29.473.529.473.787 0 .189-.062.317-.245.497-.325.325-.399.495-.399.914 0 .643.192.989.55.989.31 0 .55-.337.59-.837l.035-.459.062-.437.036-.316c0-.163-.107-.37-.423-.737-.341-.4-.455-.613-.455-.925 0-.373.257-.644.607-.644l.235.067c.003-.211.014-.254.134-.549.092-.233.194-.398.241-.398l.072.049.159.133.121.084.107.109c.077-.271.155-.399.377-.617l.266-.218.088.061.143.192.207.232c.079.087.106.161.145.373l.121-.072.192-.108.148-.097.075-.038.059.088.07.276.158.315.062.312-.003.076.082-.004c.239 0 .446.283.446.61 0 .431-.344.988-.792 1.283l-.051.321c0 .966.254 1.169 1.736 1.388.369.056.701.125.994.206.047.015.365.119.956.315.326.109.548.157.717.157l.281-.146c0-.165-.243-.313-.984-.606l-1.056-.411c-1.072-.419-1.578-1.074-1.578-2.037 0-1.12.839-1.963 1.965-1.963.424 0 .835.088 1.43.306.765.278.803.291.889.291.148 0 .228-.103.25-.313.02-.184.068-.256.169-.256.148 0 .309.135.426.362.099.197.157.429.157.63 0 .398-.212.663-.594.739-.256.334-.583.499-.976.499-.482 0-.721-.094-1.544-.607-.295-.186-.422-.231-.637-.231-.289 0-.502.181-.502.423 0 .224.177.368.581.475.239.062.276.082.4.206l.202-.031c.393 0 .878.215 1.288.564.746.23 1.408 1.035 1.408 1.712 0 .747-.646 1.418-1.368 1.418-.196.003-.587-.059-.936-.146" clip-path="url(#b)"/><path fill="#FFDE26" d="M32.905 34.073l.05-.133.049-.169.132-.207a.972.972 0 00.184-.601l-.063-.236-.036-.11.025-.056.048-.036.008-.002.124.085.122.097.148-.23.021-.121-.107-.341-.038-.124.068-.076.163.105.092.047c.075 0 .129-.077.185-.268l.051-.188-.044-.056-.043.004-.141.013c-.222 0-.536-.15-.682-.328l-.339-.412-.315-.4-.268-.181-.072-.099.115-.077c.066 0 .264.071.625.224.35.147.897.269 1.23.269.577 0 1.054-.47 1.054-1.04 0-.31-.14-.596-.479-.996l-.225-.148-.067.071.039.136.022.112-.058.086c-.074 0-.156-.125-.22-.343-.081-.271-.239-.431-.607-.615l-.383-.14-.039.055.047.142.099.231v.012l-.067.074c-.079 0-.096-.021-.274-.291-.092-.141-.333-.325-.548-.414l-.202-.047h-.007l-.078.046.054.112.017.067-.058.067c-.072 0-.296-.186-.476-.392-.191-.221-.313-.503-.313-.725 0-.462.443-.876.937-.876l.312.063.42.217.5.326c.286.19.678.331.913.331.091 0 .158-.012.382-.077l.195-.12-.007-.01-.042-.024-.266-.022c-.148-.015-.484-.167-.751-.343l-.557-.361-.497-.207-.062-.063.056-.047.136.027.463.132c.116.03.301.118.558.254.505.269.835.388 1.075.388.281 0 .486-.192.486-.455l-.047-.346-.072-.156-.061-.047-.055.097.006.084.005.071c0 .223-.087.304-.334.304-.203 0-.472-.085-1.088-.325-.576-.228-.939-.316-1.296-.316-.914 0-1.712.744-1.712 1.593 0 .734.486 1.294 1.481 1.702l1.03.425c.85.35 1.164.601 1.164.934 0 .276-.257.452-.658.452-.171 0-.388-.047-.785-.175-.964-.306-1.59-.435-2.142-.435-.897 0-1.539.247-2.048.786l-.169.094-.172-.069-.266-.087-.291.161-.121.158-.108.073-.342-.33-.12-.315-.025-.331.012-.228.039-.238.033-.207.061-.048.09.187-.003.078-.004.055c0 .345.138.66.286.66.12 0 .223-.212.31-.631l.093-.132c.048 0 .078.062.114.243l.18.386.14.098c.099 0 .162-.149.212-.497l.106-.219.051.027.086.133.134.119.141.051.113-.051.085-.099-.073-.106c-.079-.085-.141-.199-.219-.401l-.108-.277-.062-.084-.036-.011-.072.011-.253.071-.08.013-.056-.058.098-.135c.306-.244.489-.654.557-1.248.041-.363.088-.5.242-.715l.078-.075.071.109-.04.17-.026.147.003.047.023.073.135-.05.144-.168.16-.497-.098-.278-.185-.129-.084.008-.083.007-.118-.073.02-.093.015-.133-.073-.303-.062-.146-.036-.121-.086.061-.182.108-.145.135c-.171.208-.183.217-.253.217l-.068-.046.006-.051.035-.251c0-.211-.151-.53-.337-.706-.254.242-.388.508-.388.764v.146l-.058.084h-.004l-.083-.064-.146-.191-.195-.16-.095-.083-.05.097c-.12.239-.161.386-.168.581l-.056.209-.078-.027c-.186-.104-.2-.11-.28-.11-.217 0-.366.159-.366.387l.15.404c.109.198.278.376.348.376l.028-.074v-.024l-.013-.204-.026-.16-.001-.021.054-.066c.111 0 .207.32.288.961.072.563.227.949.472 1.176l.098.129-.047.041-.16-.062-.13-.039-.281.293-.111.692-.084.969c-.016.182.01.43.073.726.056.264.086.454.086.574 0 .726-.453 1.3-1.201 1.521l-.776.23c-.482.144-.72.465-.787 1.054.125-.097.163-.114.353-.144l.229-.036.205-.061.134-.136.204-.228.193-.138.051.07-.085.2-.089.313c0 .154.042.252.199.476l.047-.146.184-.254c.168-.218.287-.443.29-.544.003-.189.02-.25.067-.25l.065.116.039.074.074.046.094-.046.194-.172.12-.218.063-.23-.001-.157.038-.074.132.135.078.063h.007l.108-.052.242-.453-.011-.224-.051-.183-.002-.016.06-.07.198.257.108.12.221-.206.108-.157.037-.123-.037-.121-.1-.145-.022-.122c0-.165.061-.349.181-.566l.159-.305.067-.076.042.065-.011.132v.193l.105.063.125-.025.3-.108.28-.135c.475-.264.621-.316.855-.316.141 0 .32.053.574.171l.127.038.105-.062.036-.093-.051-.15-.072-.178.056-.055.091.064c.037.058.131.218.277.483.227.401.521.682.776.74l.532.122c.166.033.209.099.209.306 0 .375-.178.706-.484.905l-.438.28c-.157.099-.29.378-.29.611 0 .149.036.411.084.622l.085-.085.207-.121.181-.182.097-.266.096-.243.141-.195.066.188-.001.029v.047c0 .174.023.252.157.512" clip-path="url(#b)"/><path fill="#FFDE26" d="M25.732 37.53c0-.576.207-.828 1.042-1.249 1.646-.836 2.537-1.604 2.537-2.186 0-.118-.042-.29-.147-.652a2.037 2.037 0 01-.104-.526c0-.269.219-.674.502-.926l.23-.207.221-.384-.004-.056-.003-.07.174-.169.111-.011.086-.026.106.062.059.098.086.096.078.048.093-.034.146-.046.097.104c0 .241-.16.596-.438.969-.466.631-.616.971-.616 1.371 0 .316.088.595.264.822l.051.089-.087.154-.07.097-.227.195-.114-.1-.047-.13-.07-.064-.054.049-.047.135v.206l-.085.242-.171.18-.078.063-.103-.098-.073-.241-.059-.062-.086.173c-.025.272-.072.439-.145.507l-.17.155-.154.091-.076-.04-.086-.183-.052-.036c-.051 0-.085.095-.105.277-.042.438-.134.634-.376.8-.187.137-.228.177-.301.341a.776.776 0 01-.146-.481l.048-.232.078-.202-.043-.055-.061.049-.157.122c-.216.125-.248.17-.3.412-.072.326-.227.479-.559.544-.408.083-.435.094-.583.231l-.012-.216zM24.946 25.034v.122l.001.182-.027.193-.047.274c0 .231.033.346.171.587l.124.406-.053.076-.059-.035-.097-.134c-.079-.106-.151-.134-.35-.134l-.209.014c.084.207.111.286.145.424.099.396.114.426.327.619.217.195.237.222.237.289l-.085.099-.079-.013-.047-.004-.128.254.078.308.085.145.122.12.048.126-.073.109-.111-.04-.084-.023-.078.1.017.182.074.312.135.231.18.144.244.11.034.096-.081.086-.125-.024-.121-.012-.131.102.022.188.05.194c.051.205.117.315.189.315l.089-.048c.176-.133.528-.255.749-.255.227 0 .488.027.583.062l.117.029.04-.139.027-.216.047-.378.036-.278v-.156l-.098.083c-.206.191-.337.254-.549.254-.554 0-.875-.626-.875-1.72 0-.449.067-1.087.19-1.817l.038-.336c.001-.402-.253-.792-.692-1.073" clip-path="url(#b)"/><path fill="#FFDE26" d="M25.841 27.082l-.026.184-.033.181-.014.182v.12l.112-.108.106-.098.164-.371-.042-.173-.17-.175zM24.703 32.705l.279.218c.17.196.261.241.485.241l.172-.023.154-.048.123-.036.096-.063-.243-.206-.29-.168-.279-.076-.497.161zM26.339 36.115c0-.389.384-.713.854-.713.234 0 .369.047.369.128 0 .061-.102.145-.327.264l-.351.196a5.567 5.567 0 01-.532.265l-.013-.14zM31.271 33.176l.316-.083.216.012.146-.097.168-.121c.244-.165.255-.177.255-.229 0-.069-.097-.1-.302-.1-.381.001-.612.178-.799.618" clip-path="url(#b)"/><path fill="#2F2F27" d="M27.611 25.799l.171.109.243.134c.185.076.253.104.253.175l-.024.139-.036.168-.184.208c-.082 0-.165-.126-.302-.364l-.192-.483-.008-.047.052-.048M29.222 25.918l-.265.134-.259.073-.104.134v.012l.012.208.01.205.128.12h.02l.083-.036.121-.266.28-.282.119-.203.028-.077-.07-.069zM28.023 27.045l.183.135.159.042.289-.078.157-.071.093-.027.175.231c0 .179-.129.361-.317.63l-.133.279-.264.207c-.142 0-.212-.081-.427-.513-.157-.306-.217-.492-.217-.643l.162-.216.14.024z" clip-path="url(#b)"/><path fill="#FFDE26" d="M28.181 27.713l.012.23.176.208c.113 0 .193-.17.235-.427l.028-.168-.145-.113-.063.004h-.086l-.052-.004-.106.214" clip-path="url(#b)"/><path fill="#2B2C2C" d="M14.539 22.228h1.182v2.432h1.396v-2.407h3.516v2.407h1.395v-2.407h1.186v-6.281h-1.356l-.05-.072c-.161-.244-.383-.368-.657-.368-.264 0-.488.157-.637.44h-.978a.71.71 0 00-.654-.44.73.73 0 00-.689.44h-1.05c-.175-.312-.371-.437-.674-.437-.305 0-.503.131-.648.437h-1.282v6.256z" clip-path="url(#b)"/><path fill="#E53E33" d="M15.045 16.488h7.706v5.28h-7.706z" clip-path="url(#b)"/><path fill="#FFDE26" d="M15.846 17.694a.369.369 0 00-.367.367c0 .201.166.366.367.366a.368.368 0 00.367-.366.37.37 0 00-.367-.367" clip-path="url(#b)"/><path fill="#2B2C2C" d="M15.846 17.744l-.317.315.317.32.317-.32-.317-.315zm0 .733a.417.417 0 11.003-.833.417.417 0 01-.003.833" clip-path="url(#b)"/><path fill="#FFDE26" d="M21.895 17.694a.368.368 0 00-.368.367.368.368 0 00.735 0 .37.37 0 00-.367-.367" clip-path="url(#b)"/><path fill="#2B2C2C" d="M21.895 17.744l-.32.315.32.32.317-.32-.317-.315zm0 .733a.418.418 0 01-.418-.418.42.42 0 01.418-.415.417.417 0 010 .833" clip-path="url(#b)"/><path fill="#FFDE26" d="M15.846 20.566a.369.369 0 00-.367.367c0 .202.171.366.382.366a.36.36 0 00.352-.366.37.37 0 00-.367-.367" clip-path="url(#b)"/><path fill="#2B2C2C" d="M15.845 20.617l-.317.317c0 .173.149.316.332.316l.302-.316-.317-.317zm.015.732c-.239 0-.43-.187-.43-.415a.416.416 0 11.43.415" clip-path="url(#b)"/><path fill="#FFDE26" d="M21.895 20.566a.367.367 0 10-.002.732.367.367 0 00.002-.732" clip-path="url(#b)"/><path fill="#2B2C2C" d="M21.895 20.617l-.32.317.32.316.317-.316-.317-.317zm0 .732c-.231 0-.418-.187-.418-.415a.417.417 0 01.833 0 .417.417 0 01-.415.415" clip-path="url(#b)"/><path fill="#FFDE26" d="M16.995 19.454c.496.622 1.123.931 1.899.931.714 0 1.208-.258 1.791-.931-.583-.595-1.118-.842-1.83-.842-.743-.001-1.417.304-1.86.842" clip-path="url(#b)"/><path fill="#2B2C2C" d="M17.359 19.454c.513-.397.944-.563 1.477-.563.539 0 .944.159 1.468.574-.457.455-.859.626-1.475.626-.544-.001-1.045-.218-1.47-.637" clip-path="url(#b)"/><path fill="#FFDE26" d="M17.984 19.332c.306.191.549.267.835.267.336 0 .618-.084.888-.267a2.02 2.02 0 00-.876-.208c-.303 0-.591.07-.847.208" clip-path="url(#b)"/><path fill="#2B2C2C" d="M14.938 16.755h7.922v.271h-7.922z" clip-path="url(#b)"/><path fill="#2C2F2C" d="M14.952 16.774h7.889v.235h-7.889v-.235zm-.033.268h7.954v-.302h-7.954v.302z" clip-path="url(#b)"/><path fill="#FFDE26" d="M16.152 16.411v.756c0 .181.14.32.325.32.213 0 .334-.114.334-.32v-.743c0-.287-.116-.467-.306-.467l-.146.039-.087.047-.073.099-.047.135M18.533 17.035v.134c0 .18.141.317.326.317.212 0 .335-.114.335-.317v-.745c0-.285-.118-.466-.305-.466-.218 0-.356.176-.356.455M20.843 16.411v.756c0 .181.141.32.329.32.211 0 .332-.114.332-.32v-.743c0-.287-.118-.467-.305-.467l-.148.039-.084.047-.076.099-.048.135M15.98 22.8h.72v.928h-.72zM15.98 23.938h.72v.294h-.72zM20.892 22.8h.72v.928h-.72zM20.892 23.938h.72v.294h-.72z" clip-path="url(#b)"/></svg>